<?xml version="1.0" encoding="utf-8"?>
<!-- Generator: Adobe Illustrator 16.0.0, SVG Export Plug-In . SVG Version: 6.00 Build 0)  -->
<!DOCTYPE svg PUBLIC "-//W3C//DTD SVG 1.1//EN" "http://www.w3.org/Graphics/SVG/1.1/DTD/svg11.dtd">
<svg version="1.1" id="Layer_1" xmlns="http://www.w3.org/2000/svg" xmlns:xlink="http://www.w3.org/1999/xlink" x="0px" y="0px"
	 width="56.722px" height="49.264px" viewBox="0 0 56.722 49.264" enable-background="new 0 0 56.722 49.264" xml:space="preserve">
<g>
	<g>
		<g>
			<path fill="#8D919C" d="M50.992,49.264H5.729C2.564,49.264,0,46.7,0,43.536V10.152c0-3.164,2.563-5.729,5.729-5.729h45.265
				c3.163,0,5.729,2.563,5.729,5.729v33.386C56.72,46.7,54.155,49.264,50.992,49.264z"/>
			<path fill="#FFFFFF" d="M50.992,44.84H5.729C2.564,44.84,0,42.276,0,39.113V5.729C0,2.564,2.564,0,5.729,0h45.265
				c3.163,0,5.729,2.562,5.729,5.729v33.384C56.72,42.276,54.155,44.84,50.992,44.84z"/>
		</g>
	</g>
	<path fill="#F47920" d="M32.351,34.692c-0.867,1.737-2.778,2.432-4.08,2.432c-0.435,0-1.736-0.349-1.823-0.435
		c-0.174,0-1.996-1.302-1.996-1.735v-0.262H32.351z M32.092,31.221c0.521,0.086,0.781,0.693,0.781,0.781
		c0,0.174-0.261,1.041-0.781,1.041h-7.64c-0.607-0.521-0.521-0.521-0.521-0.955c0-0.435-0.086-0.608,0.521-0.867H32.092z
		 M38.948,17.851c0,1.39,0.089,0.955-0.347,2.692c-0.087,0.434-0.261,0.954-0.521,1.475c-0.521,1.129-1.304,2.605-2.69,3.734
		c-0.521,0.435-1.215,0.867-1.65,1.302c-0.087,0,0,0.261-0.087,0.434c-0.259,0.437-0.433,1.304-1.04,1.996h-8.509
		c-0.867-0.866-0.867-1.734-1.302-2.43c-0.347-0.608-1.129-0.867-1.562-1.302c-0.606-0.436-1.475-1.564-2.083-2.433
		c-0.174-0.261-1.389-3.298-1.389-4.079v-2.95c1.042-5.989,5.902-9.115,10.503-9.115C34.348,7.175,38.948,11.949,38.948,17.851z"/>
	<path fill="#FFFFFF" d="M35.91,18.373c0,0.348,0.088,0.955-0.607,0.955c-0.174,0-0.693-0.087-0.78-0.348
		c-0.261-0.868-0.261-1.736-0.521-2.604c-0.349-1.39-2.518-3.731-3.993-3.993c-0.695-0.174-1.562-0.174-2.258-0.346
		c-0.435-0.087-0.347-0.262-0.347-0.521c0-0.782,0.521-0.782,1.127-0.782C32.525,10.734,35.91,14.639,35.91,18.373z"/>
</g>
</svg>
