<?xml version="1.0" encoding="utf-8"?>
<!-- Generator: Adobe Illustrator 16.0.0, SVG Export Plug-In . SVG Version: 6.00 Build 0)  -->
<!DOCTYPE svg PUBLIC "-//W3C//DTD SVG 1.1//EN" "http://www.w3.org/Graphics/SVG/1.1/DTD/svg11.dtd">
<svg version="1.1" id="Layer_1" xmlns="http://www.w3.org/2000/svg" xmlns:xlink="http://www.w3.org/1999/xlink" x="0px" y="0px"
	 width="199.104px" height="59.764px" viewBox="0 0 199.104 59.764" enable-background="new 0 0 199.104 59.764"
	 xml:space="preserve">
<g>
	<g>
		<path fill="#8D919C" d="M192.155,59.764H6.949C3.111,59.764,0,56.653,0,52.815v-40.5c0-3.838,3.11-6.948,6.949-6.948h185.205
			c3.838,0,6.948,3.11,6.948,6.948v40.5C199.104,56.653,195.992,59.764,192.155,59.764z"/>
		<path fill="#FFFFFF" d="M192.155,54.397H6.949C3.111,54.397,0,51.287,0,47.449v-40.5C0,3.111,3.111,0,6.949,0h185.205
			c3.838,0,6.948,3.11,6.948,6.949v40.5C199.104,51.287,195.992,54.397,192.155,54.397z"/>
	</g>
	<g enable-background="new    ">
		<path fill="#F47920" d="M66.911,31.551l-9.758-7.358v-7.318c0-2.72,2.16-4.88,4.879-4.88h4.879c2.72,0,4.879,2.16,4.879,4.88
			v3.679h-4.879v-3.679h-4.879v4.879l9.758,7.358v7.319c0,2.72-2.16,4.879-4.879,4.879h-4.879c-2.72,0-4.879-2.159-4.879-4.879
			v-3.68h4.879v3.68h4.879V31.551z"/>
		<path fill="#F47920" d="M88.83,11.994v4.88H83.91V41.31h-4.879V16.874h-4.879v-4.88H88.83z"/>
		<path fill="#F47920" d="M105.669,41.31h-4.92V29.112h-4.878V41.31h-4.879V16.874c0-2.72,2.16-4.88,4.879-4.88h4.878
			c2.721,0,4.92,2.16,4.92,4.88V41.31z M100.749,24.193v-7.318h-4.878v7.318H100.749z"/>
		<path fill="#F47920" d="M122.709,30.312V41.31h-4.919V30.312c0-0.68-0.521-1.2-1.2-1.2h-3.679V41.31h-4.88V11.994h9.759
			c2.719,0,4.919,2.16,4.919,4.88v6.118c0,1.44-0.601,2.72-1.68,3.64C122.109,27.552,122.709,28.872,122.709,30.312z M117.79,24.193
			v-7.318h-4.879v7.318H117.79z"/>
		<path fill="#F47920" d="M139.788,11.994v4.88h-4.919V41.31h-4.879V16.874h-4.88v-4.88H139.788z"/>
	</g>
</g>
</svg>
