<?xml version="1.0" encoding="utf-8"?>
<!-- Generator: Adobe Illustrator 16.0.0, SVG Export Plug-In . SVG Version: 6.00 Build 0)  -->
<!DOCTYPE svg PUBLIC "-//W3C//DTD SVG 1.1//EN" "http://www.w3.org/Graphics/SVG/1.1/DTD/svg11.dtd">
<svg version="1.1" id="Layer_1" xmlns="http://www.w3.org/2000/svg" xmlns:xlink="http://www.w3.org/1999/xlink" x="0px" y="0px"
	 width="69.104px" height="59.764px" viewBox="0 0 69.104 59.764" enable-background="new 0 0 69.104 59.764" xml:space="preserve">
<g>
	<g>
		<g>
			<path fill="#8D919C" d="M62.154,59.764H6.949C3.111,59.764,0,56.653,0,52.815v-40.5c0-3.838,3.111-6.949,6.949-6.949h55.205
				c3.838,0,6.949,3.111,6.949,6.949v40.5C69.104,56.653,65.992,59.764,62.154,59.764z"/>
			<path fill="#4EB748" d="M62.154,54.397H6.949C3.111,54.397,0,51.287,0,47.449v-40.5C0,3.111,3.111,0,6.949,0h55.205
				c3.838,0,6.949,3.111,6.949,6.949v40.5C69.104,51.287,65.992,54.397,62.154,54.397z"/>
		</g>
	</g>
	<path fill-rule="evenodd" clip-rule="evenodd" fill="#FFFFFF" stroke="#FFFFFF" stroke-miterlimit="10" d="M31.551,22.19
		c0.51,1.018,1.324,2.75,1.324,3.055c0,0.205-1.121,1.428-1.121,1.734c0,1.527,3.871,4.074,4.584,4.074
		c0.305,0,1.428-1.732,1.732-1.732c0.205,0,1.834,0.713,2.75,1.223c0.205,0.102,0.408,0.305,0.408,0.51
		c0,1.832-1.732,2.852-3.055,2.852c-0.918,0-2.346-0.611-3.16-1.02c-2.445-1.018-5.297-3.971-6.213-6.416
		c0-0.102-0.102-0.102-0.102-0.305v-2.244c1.119-1.934,0.916-1.73,2.037-1.73H31.551z M45.201,27.896
		c0,6.213-4.992,10.389-10.492,10.389c-2.648,0-5.5-1.73-5.807-1.73c-0.203,0-2.24,0.611-3.361,0.916
		c0.205-1.121,0.918-3.26,0.918-3.463c0-0.305-0.611-0.916-0.816-1.324c-0.609-1.121-1.119-3.463-1.119-4.787
		c0-5.908,4.686-10.289,10.389-10.289C41.025,17.606,45.201,22.495,45.201,27.896z M37.051,15.569
		C43.775,16.792,47.34,22.7,47.34,27.896c0,7.129-5.908,12.527-12.631,12.527c-2.242,0-3.77-0.814-6.111-1.527l-6.111,1.527v-0.611
		l1.629-5.5c-0.305-0.508-1.629-3.463-1.629-4.48v-3.768c0.203-0.92,0.51-1.938,0.814-2.957c0.814-2.75,5.092-6.619,7.842-7.129
		c0.51-0.102,1.02-0.203,1.529-0.408h2.139C35.115,15.569,36.338,15.468,37.051,15.569z"/>
</g>
</svg>
