<?xml version="1.0" encoding="utf-8"?>
<!-- Generator: Adobe Illustrator 16.0.0, SVG Export Plug-In . SVG Version: 6.00 Build 0)  -->
<!DOCTYPE svg PUBLIC "-//W3C//DTD SVG 1.1//EN" "http://www.w3.org/Graphics/SVG/1.1/DTD/svg11.dtd">
<svg version="1.1" id="Layer_1" xmlns="http://www.w3.org/2000/svg" xmlns:xlink="http://www.w3.org/1999/xlink" x="0px" y="0px"
	 width="199.104px" height="59.764px" viewBox="0 0 199.104 59.764" enable-background="new 0 0 199.104 59.764"
	 xml:space="preserve">
<g>
	<g>
		<path fill="#8D919C" d="M192.155,59.764H6.949C3.111,59.764,0,56.653,0,52.815v-40.5C0,8.477,3.11,5.367,6.949,5.367h185.204
			c3.839,0,6.948,3.109,6.948,6.947v40.5C199.104,56.653,195.992,59.764,192.155,59.764z"/>
		<path fill="#FFFFFF" d="M192.155,54.397H6.949C3.111,54.397,0,51.287,0,47.449v-40.5C0,3.111,3.111,0,6.949,0h185.204
			c3.839,0,6.948,3.109,6.948,6.949v40.5C199.104,51.287,195.992,54.397,192.155,54.397z"/>
	</g>
</g>
<g>
	<path fill="#F47920" d="M65.315,35.392v4.637h-6.384c-0.634,0-1.235-0.121-1.805-0.361s-1.064-0.57-1.482-0.988
		s-0.748-0.912-0.988-1.482c-0.241-0.569-0.361-1.171-0.361-1.805V22.624V16.81c0-0.633,0.12-1.235,0.361-1.805
		s0.57-1.064,0.988-1.482s0.912-0.747,1.482-0.988c0.57-0.24,1.171-0.361,1.805-0.361h4.636h1.748v4.636h-6.384v6.954h4.636h1.748
		v4.674h-6.384v6.954h4.636H65.315z"/>
	<path fill="#F47920" d="M81.35,29.768v10.26h-4.674v-8.322l-2.318-2.318l-2.318,2.318v8.322h-4.636v-10.26l3.686-3.686
		l-3.686-3.648v-10.26h4.636v8.322l2.318,2.318l2.318-2.318v-8.322h4.674v10.26l-3.686,3.648L81.35,29.768z"/>
	<path fill="#F47920" d="M97.538,16.81v6.954c0,0.659-0.121,1.267-0.361,1.824c-0.241,0.558-0.576,1.051-1.007,1.482
		c-0.432,0.431-0.931,0.767-1.501,1.007c-0.57,0.241-1.172,0.361-1.805,0.361h-4.637v11.59h-4.636V12.174h9.272
		c0.633,0,1.234,0.121,1.805,0.361c0.57,0.241,1.069,0.57,1.501,0.988c0.431,0.418,0.766,0.912,1.007,1.482
		C97.417,15.575,97.538,16.177,97.538,16.81z M92.865,23.764V16.81h-4.637v6.954H92.865z"/>
	<path fill="#F47920" d="M110.496,35.392v4.637h-6.384c-0.633,0-1.234-0.121-1.805-0.361s-1.064-0.57-1.482-0.988
		s-0.747-0.912-0.987-1.482c-0.241-0.569-0.361-1.171-0.361-1.805V22.624V16.81c0-0.633,0.12-1.235,0.361-1.805
		c0.24-0.57,0.569-1.064,0.987-1.482s0.912-0.747,1.482-0.988c0.57-0.24,1.172-0.361,1.805-0.361h4.637h1.747v4.636h-6.384v6.954
		h4.637h1.747v4.674h-6.384v6.954h4.637H110.496z"/>
	<path fill="#F47920" d="M124.936,26.082c0.507,0.431,0.899,0.95,1.179,1.558c0.278,0.608,0.418,1.254,0.418,1.938v10.451h-4.674
		V29.578c0-0.329-0.108-0.601-0.323-0.817c-0.216-0.215-0.488-0.323-0.817-0.323h-3.496v11.59h-4.636V12.174h9.272
		c0.633,0,1.234,0.121,1.805,0.361c0.57,0.241,1.069,0.57,1.501,0.988c0.431,0.418,0.766,0.912,1.007,1.482
		c0.24,0.57,0.361,1.172,0.361,1.805v5.814c0,0.684-0.14,1.324-0.418,1.919C125.835,25.138,125.443,25.652,124.936,26.082z
		 M121.859,23.764V16.81h-4.637v6.954H121.859z"/>
	<path fill="#F47920" d="M142.758,16.81h-4.674v23.218h-4.637V16.81h-4.636v-4.636h13.946V16.81z"/>
</g>
</svg>
