<?xml version="1.0" encoding="utf-8"?>
<!-- Generator: Adobe Illustrator 16.0.0, SVG Export Plug-In . SVG Version: 6.00 Build 0)  -->
<!DOCTYPE svg PUBLIC "-//W3C//DTD SVG 1.1//EN" "http://www.w3.org/Graphics/SVG/1.1/DTD/svg11.dtd">
<svg version="1.1" id="Layer_1" xmlns="http://www.w3.org/2000/svg" xmlns:xlink="http://www.w3.org/1999/xlink" x="0px" y="0px"
	 width="48.72px" height="49.264px" viewBox="0 0 48.72 49.264" enable-background="new 0 0 48.72 49.264" xml:space="preserve">
<g>
	<g>
		<g>
			<path fill="#8D919C" d="M42.992,49.264H5.729C2.564,49.264,0,46.7,0,43.536V10.152c0-3.164,2.564-5.729,5.729-5.729h37.264
				c3.163,0,5.728,2.565,5.728,5.729v33.384C48.72,46.7,46.155,49.264,42.992,49.264z"/>
			<path fill="#FFFFFF" d="M42.992,44.84H5.729C2.564,44.84,0,42.276,0,39.113V5.729C0,2.564,2.564,0,5.729,0h37.264
				c3.163,0,5.728,2.564,5.728,5.729v33.384C48.72,42.276,46.155,44.84,42.992,44.84z"/>
		</g>
	</g>
	<path fill-rule="evenodd" clip-rule="evenodd" fill="#F47920" d="M25.729,13.109v18.337c0.047,0.465-0.603,0.79-0.882,0.79
		c-0.093,0-0.278-0.046-0.371-0.139c-0.232-0.14-6.267-5.478-6.592-5.478h-4.735c-0.325,0.139-1.532,0-1.532-0.742v-7.243
		c0-0.372,0.418-0.789,0.742-0.789h5.757c2.089-1.764,4.087-3.574,6.175-5.292c0.14-0.139,0.464-0.232,0.604-0.232
		C25.265,12.32,25.729,12.645,25.729,13.109z"/>
</g>
</svg>
