<?xml version="1.0" encoding="utf-8"?>
<!-- Generator: Adobe Illustrator 16.0.0, SVG Export Plug-In . SVG Version: 6.00 Build 0)  -->
<!DOCTYPE svg PUBLIC "-//W3C//DTD SVG 1.1//EN" "http://www.w3.org/Graphics/SVG/1.1/DTD/svg11.dtd">
<svg version="1.1" id="Layer_1" xmlns="http://www.w3.org/2000/svg" xmlns:xlink="http://www.w3.org/1999/xlink" x="0px" y="0px"
	 width="48.721px" height="49.264px" viewBox="0 0 48.721 49.264" enable-background="new 0 0 48.721 49.264" xml:space="preserve">
<g>
	<g>
		<g>
			<path fill="#8D919C" d="M42.992,49.264H5.729C2.564,49.264,0,46.7,0,43.536V10.152c0-3.164,2.564-5.729,5.729-5.729h37.264
				c3.163,0,5.729,2.564,5.729,5.729v33.385C48.72,46.7,46.155,49.264,42.992,49.264z"/>
			<path fill="#FFFFFF" d="M42.992,44.84H5.729C2.564,44.84,0,42.276,0,39.113V5.729C0,2.564,2.564,0,5.729,0h37.264
				c3.163,0,5.729,2.563,5.729,5.729v33.384C48.72,42.276,46.155,44.84,42.992,44.84z"/>
		</g>
	</g>
	<path fill-rule="evenodd" clip-rule="evenodd" fill="#F47920" d="M32.364,22.781v7.394c-2.592,2.285-5.336,2.973-7.928,2.973
		c-2.972,0-5.031-0.611-8.233-2.896v-7.014c1.829,0.535,6.023,2.44,8.31,2.44c2.211,0,5.489-2.211,7.547-2.897H32.364z
		 M27.181,12.564c1.677,0.61,3.431,1.373,5.183,2.059c0.763,0.381,1.753,0.763,2.668,1.067c0.533,0.229,3.583,1.144,3.583,1.905
		c0,0.534-1.219,0.687-1.219,1.068v4.346c0.381,0.534,0.762,0.99,1.065,1.449l-1.981,1.676l-1.829-1.676
		c0.306-0.459,0.839-0.991,1.144-1.449v-3.661c0,0,0-0.075-0.152-0.075c-0.229,0-6.86,2.897-10.29,4.27
		c-0.306,0.153-0.839,0.153-0.991,0.153c-1.982,0-11.664-4.271-13.341-5.186c-0.458-0.229-0.915-0.534-0.915-0.915
		c0-0.915,2.973-1.676,3.125-1.752c0.991-0.382,2.135-0.763,3.203-1.22c1.219-0.458,2.667-0.991,3.964-1.525
		c1.449-0.534,2.745-1.219,4.193-1.219C25.657,11.879,25.733,12.031,27.181,12.564z"/>
</g>
</svg>
