<?xml version="1.0" encoding="utf-8"?>
<!-- Generator: Adobe Illustrator 16.0.0, SVG Export Plug-In . SVG Version: 6.00 Build 0)  -->
<!DOCTYPE svg PUBLIC "-//W3C//DTD SVG 1.1//EN" "http://www.w3.org/Graphics/SVG/1.1/DTD/svg11.dtd">
<svg version="1.1" id="Layer_1" xmlns="http://www.w3.org/2000/svg" xmlns:xlink="http://www.w3.org/1999/xlink" x="0px" y="0px"
	 width="48.72px" height="49.264px" viewBox="0 0 48.72 49.264" enable-background="new 0 0 48.72 49.264" xml:space="preserve">
<g>
	<g>
		<g>
			<path fill="#8D919C" d="M42.992,49.264H5.729C2.564,49.264,0,46.7,0,43.536V10.152c0-3.164,2.564-5.729,5.729-5.729h37.264
				c3.163,0,5.728,2.565,5.728,5.729v33.384C48.72,46.7,46.155,49.264,42.992,49.264z"/>
			<path fill="#FFFFFF" d="M42.992,44.841H5.729C2.564,44.841,0,42.276,0,39.112V5.729C0,2.564,2.564,0,5.729,0h37.264
				c3.163,0,5.728,2.564,5.728,5.729v33.384C48.72,42.276,46.155,44.841,42.992,44.841z"/>
		</g>
	</g>
	<path fill-rule="evenodd" clip-rule="evenodd" fill="#F47920" d="M29.992,22.401c0,3.248-2.688,5.972-5.975,5.972
		c-3.359,0-5.973-2.762-5.973-5.972c0-3.361,2.763-5.937,5.937-5.937C27.378,16.464,29.992,19.227,29.992,22.401z M25.661,6.871
		c0.41,0.261,0.522,0.821,0.597,1.194c0.075,0.56,0.224,1.157,0.3,1.717c0.074,0.298,0,0.709,0.187,1.083
		c0.074,0.187,0.485,0.187,0.746,0.261c0.448,0.112,0.934,0.337,1.381,0.523c0.635,0.299,1.792,1.083,1.904,1.083
		c0.187,0,2.725-1.905,3.396-1.905c1.046,0,1.606,1.121,2.39,2.054c0.149,0.149,0.225,0.597,0.225,0.672
		c0,0.187-0.149,0.634-0.262,0.784c-0.672,0.858-2.054,2.501-2.054,2.613c0,0.075,0.225,0.448,0.299,0.672
		c0.224,0.485,0.411,1.045,0.561,1.568c0.037,0.112,0,0.336,0.187,0.411c0.187,0.112,0.485,0.112,0.747,0.149
		c0.821,0.112,1.643,0.299,2.463,0.411c0.448,0.075,1.045,0.821,1.045,1.232v2.017c-0.036,0.485-0.559,1.157-1.045,1.231
		c-0.148,0.038-0.373,0.038-0.521,0.075c-0.896,0.149-1.793,0.336-2.688,0.486c-0.037,0.037-0.074,0.112-0.111,0.149
		c-0.038,0.224-0.112,0.448-0.188,0.672c-0.037,0.112-0.074,0.262-0.149,0.411c-0.075,0.224-0.225,0.522-0.336,0.82
		c-0.187,0.374-0.635,1.195-0.635,1.307c0,0.149,1.681,2.203,2.054,3.062c0.037,0.075,0.074,0.298,0.074,0.373
		c0,0.112-0.037,0.373-0.111,0.522c-0.336,0.636-1.195,1.42-1.83,1.942c-0.187,0.149-0.56,0.224-0.71,0.224
		c-0.186,0-0.448-0.037-0.635-0.187c-0.97-0.597-2.762-1.979-2.836-1.979c-0.111,0-0.448,0.225-0.635,0.338
		c-0.635,0.298-1.307,0.634-1.941,0.82c-0.335,0.111-0.672,0-0.783,0.299c-0.149,0.336-0.112,0.746-0.187,1.119
		c-0.038,0.337-0.149,0.672-0.187,1.008c-0.225,2.353-1.12,2.129-2.39,2.129c-0.822,0-1.979,0.186-2.278-1.121
		c-0.261-1.045-0.261-2.127-0.522-3.135c-0.037-0.149-0.224-0.149-0.299-0.188c-0.298-0.074-0.635-0.186-0.933-0.298
		c-0.448-0.187-1.046-0.411-1.53-0.673c-0.374-0.225-1.046-0.635-1.12-0.635c-0.112,0-1.941,1.195-2.874,1.756
		c-0.262,0.148-0.448,0.148-0.599,0.148c-0.336,0-0.448,0-0.783-0.261c-0.3-0.187-0.561-0.522-0.821-0.821
		c-0.262-0.337-0.822-0.859-0.896-1.158c-0.038-0.148-0.076-0.41-0.076-0.484c0-0.262-0.037-0.449,0.187-0.711
		c0.673-0.932,2.129-2.574,2.129-2.649c0-0.112-0.188-0.261-0.225-0.373c-0.224-0.448-0.411-0.933-0.56-1.382
		c-0.075-0.224-0.187-0.484-0.224-0.746c-0.038-0.074,0-0.261-0.112-0.298c-1.082-0.262-2.165-0.411-3.248-0.561
		c-0.56-0.074-1.045-0.821-1.045-1.194v-2.054c0-0.485,0.56-1.194,1.082-1.232c0.188-0.038,0.374-0.075,0.635-0.112
		c0.113-0.038,0.337-0.038,0.522-0.075c0.411-0.075,0.858-0.149,1.308-0.224c0.186-0.037,0.709,0,0.783-0.187
		c0.075-0.187,0.112-0.448,0.187-0.634c0.188-0.597,0.411-1.157,0.672-1.68c0.112-0.298,0.523-0.858,0.523-0.97
		c0-0.075-1.345-1.867-1.979-2.837c-0.074-0.149-0.074-0.448-0.074-0.523c0-0.224-0.037-0.522,0.188-0.747
		c0.56-0.634,1.119-1.195,1.717-1.718c0.038-0.074,0.561-0.186,0.71-0.186c0.111,0,0.373,0,0.522,0.074
		c0.97,0.635,2.762,1.979,2.837,1.979c0.111,0,1.083-0.598,1.642-0.821c0.337-0.149,0.785-0.3,1.195-0.412
		c0.112-0.037,0.485-0.075,0.56-0.224c0.075-0.149,0.112-0.336,0.112-0.523c0.598-3.248,0.149-3.732,2.688-3.732
		C24.467,6.609,25.176,6.535,25.661,6.871z"/>
</g>
</svg>
