<?xml version="1.0" encoding="utf-8"?>
<!-- Generator: Adobe Illustrator 16.0.0, SVG Export Plug-In . SVG Version: 6.00 Build 0)  -->
<!DOCTYPE svg PUBLIC "-//W3C//DTD SVG 1.1//EN" "http://www.w3.org/Graphics/SVG/1.1/DTD/svg11.dtd">
<svg version="1.1" id="Layer_1" xmlns="http://www.w3.org/2000/svg" xmlns:xlink="http://www.w3.org/1999/xlink" x="0px" y="0px"
	 width="69.104px" height="59.764px" viewBox="0 0 69.104 59.764" enable-background="new 0 0 69.104 59.764" xml:space="preserve">
<g>
	<g>
		<g>
			<path fill="#8D919C" d="M62.156,59.764H6.949C3.111,59.764,0,56.653,0,52.815v-40.5c0-3.838,3.111-6.949,6.949-6.949h55.207
				c3.836,0,6.947,3.111,6.947,6.949v40.5C69.103,56.653,65.992,59.764,62.156,59.764z"/>
			<path fill="#069AD7" d="M62.156,54.397H6.949C3.111,54.397,0,51.287,0,47.449v-40.5C0,3.111,3.111,0,6.949,0h55.207
				c3.836,0,6.947,3.111,6.947,6.949v40.5C69.103,51.287,65.992,54.397,62.156,54.397z"/>
		</g>
	</g>
	<path fill="#FFFFFF" d="M47.248,21.153c-0.928,0.412-1.926,0.689-2.971,0.816c1.068-0.641,1.889-1.654,2.273-2.865
		c-0.998,0.596-2.105,1.025-3.283,1.258c-0.943-1.006-2.289-1.635-3.777-1.635c-2.857,0-5.174,2.316-5.174,5.174
		c0,0.406,0.045,0.801,0.133,1.18c-4.299-0.215-8.109-2.273-10.664-5.406c-0.441,0.766-0.697,1.654-0.697,2.602
		c0,1.797,0.912,3.379,2.301,4.305c-0.848-0.025-1.646-0.26-2.344-0.646v0.066c0,2.504,1.785,4.598,4.15,5.072
		c-0.434,0.119-0.893,0.182-1.365,0.182c-0.332,0-0.658-0.033-0.971-0.094c0.656,2.057,2.568,3.549,4.83,3.594
		c-1.768,1.387-4,2.215-6.424,2.215c-0.418,0-0.828-0.027-1.234-0.072c2.289,1.465,5.008,2.322,7.932,2.322
		c9.516,0,14.719-7.883,14.719-14.719c0-0.223-0.006-0.447-0.014-0.668C45.675,23.104,46.552,22.19,47.248,21.153z"/>
</g>
</svg>
