<?xml version="1.0" encoding="utf-8"?>
<!-- Generator: Adobe Illustrator 16.0.0, SVG Export Plug-In . SVG Version: 6.00 Build 0)  -->
<!DOCTYPE svg PUBLIC "-//W3C//DTD SVG 1.1//EN" "http://www.w3.org/Graphics/SVG/1.1/DTD/svg11.dtd">
<svg version="1.1" id="Layer_1" xmlns="http://www.w3.org/2000/svg" xmlns:xlink="http://www.w3.org/1999/xlink" x="0px" y="0px"
	 width="48.72px" height="49.264px" viewBox="0 0 48.72 49.264" enable-background="new 0 0 48.72 49.264" xml:space="preserve">
<g>
	<g>
		<g>
			<path fill="#8D919C" d="M42.992,49.264H5.729C2.564,49.264,0,46.7,0,43.536V10.152c0-3.164,2.564-5.729,5.729-5.729h37.264
				c3.163,0,5.728,2.565,5.728,5.729v33.384C48.72,46.7,46.155,49.264,42.992,49.264z"/>
			<path fill="#FFFFFF" d="M42.992,44.84H5.729C2.564,44.84,0,42.276,0,39.113V5.729C0,2.564,2.564,0,5.729,0h37.264
				c3.163,0,5.728,2.564,5.728,5.729v33.384C48.72,42.276,46.155,44.84,42.992,44.84z"/>
		</g>
	</g>
	<path fill-rule="evenodd" clip-rule="evenodd" fill="#F47920" d="M17.651,9.919c2.273,2.125,6.598,6.673,6.709,6.673
		c0.075,0,4.475-4.585,6.822-6.784c0.187-0.224,0.484-0.298,0.783-0.373c0.111-0.037,0.335,0,0.41,0c0.484,0,0.298,0,0.969,0.187
		c0.112,0.037,0.261,0.149,0.373,0.261c0.373,0.298,0.708,0.671,1.044,1.006c0.708,0.708,1.453,1.417,2.199,2.274
		c0.187,0.187,0.409,0.857,0.409,1.193c0,0.224-0.111,0.82-0.335,1.081c-2.088,2.274-4.622,4.698-6.858,6.971
		c2.273,2.311,4.696,4.548,6.858,6.971c0.224,0.224,0.335,0.821,0.335,1.082c0,0.448-0.037,0.783-0.409,1.23
		c-0.97,1.155-2.088,2.162-3.169,3.168c-0.074,0.112-0.187,0.224-0.298,0.261c-0.187,0.112-0.56,0.298-0.671,0.298h-0.82
		c-0.484-0.149-0.857-0.41-1.268-0.82c-2.125-2.162-6.3-6.337-6.375-6.337c-0.111,0-4.659,4.623-6.896,6.785
		c-0.187,0.149-0.41,0.224-0.634,0.298c-0.188,0.075-0.448,0.075-0.561,0.075c-0.447,0-0.559,0.074-1.043-0.298
		c-1.156-0.857-2.312-2.199-3.43-3.317c-0.074-0.075-0.447-0.783-0.447-0.969v-0.708c0.111-0.374,0.336-0.858,0.783-1.268
		c2.124-2.087,6.375-6.337,6.375-6.449c0-0.074-4.586-4.585-6.785-6.859c-0.075-0.037-0.373-0.708-0.373-0.857V14.02
		c0.074-0.298,0.149-0.671,0.373-0.895c1.006-1.156,2.199-2.311,3.317-3.317c0.187-0.187,0.597-0.298,0.82-0.373h0.409
		C16.868,9.435,17.018,9.36,17.651,9.919z"/>
</g>
</svg>
