<?xml version="1.0" encoding="utf-8"?>
<!-- Generator: Adobe Illustrator 16.0.0, SVG Export Plug-In . SVG Version: 6.00 Build 0)  -->
<!DOCTYPE svg PUBLIC "-//W3C//DTD SVG 1.1//EN" "http://www.w3.org/Graphics/SVG/1.1/DTD/svg11.dtd">
<svg version="1.1" id="Layer_1" xmlns="http://www.w3.org/2000/svg" xmlns:xlink="http://www.w3.org/1999/xlink" x="0px" y="0px"
	 width="199.104px" height="59.764px" viewBox="0 0 199.104 59.764" enable-background="new 0 0 199.104 59.764"
	 xml:space="preserve">
<g>
	<g>
		<path fill="#8D919C" d="M192.155,59.764H6.949C3.111,59.764,0,56.653,0,52.815v-40.5C0,8.477,3.11,5.367,6.949,5.367h185.204
			c3.839,0,6.948,3.109,6.948,6.947v40.5C199.104,56.653,195.992,59.764,192.155,59.764z"/>
		<path fill="#FFFFFF" d="M192.155,54.397H6.949C3.111,54.397,0,51.287,0,47.449v-40.5C0,3.111,3.111,0,6.949,0h185.204
			c3.839,0,6.948,3.109,6.948,6.949v40.5C199.104,51.287,195.992,54.397,192.155,54.397z"/>
	</g>
	<g>
		<path fill="#F47920" d="M67.32,32.565v3.588c0,2.652-2.145,4.759-4.797,4.759h-4.758c-2.652,0-4.758-2.106-4.758-4.759V17.081
			c0-2.652,2.106-4.758,4.758-4.758h4.758c2.652,0,4.797,2.106,4.797,4.758v3.588h-4.797v-3.588h-4.758v19.072h4.758v-3.588H67.32z"
			/>
		<path fill="#F47920" d="M83.895,40.911h-4.797V29.015H74.34v11.896h-4.758V17.081c0-2.652,2.106-4.758,4.758-4.758h4.758
			c2.652,0,4.797,2.106,4.797,4.758V40.911z M79.098,24.218v-7.137H74.34v7.137H79.098z"/>
		<path fill="#F47920" d="M100.47,40.911h-4.759V17.081h-4.758v23.831h-4.758V12.323h4.758v0.624
			c0.741-0.429,1.56-0.624,2.379-0.624h2.379c2.652,0,4.759,2.106,4.759,4.758V40.911z"/>
		<path fill="#F47920" d="M117.122,32.565v3.588c0,2.652-2.145,4.759-4.797,4.759h-4.758c-2.652,0-4.759-2.106-4.759-4.759V17.081
			c0-2.652,2.106-4.758,4.759-4.758h4.758c2.652,0,4.797,2.106,4.797,4.758v3.588h-4.797v-3.588h-4.758v19.072h4.758v-3.588H117.122
			z"/>
		<path fill="#F47920" d="M130.694,36.153v4.759h-6.552c-2.652,0-4.759-2.106-4.759-4.759V23.048v-5.967
			c0-2.652,2.106-4.758,4.759-4.758h4.758h1.794v4.758h-6.552v7.137h4.758h1.794v4.797h-6.552v7.137h4.758H130.694z"/>
		<path fill="#F47920" d="M144.148,36.153v4.759h-11.311V12.323h4.759v23.83h4.758H144.148z"/>
	</g>
</g>
</svg>
