<?xml version="1.0" encoding="utf-8"?>
<!-- Generator: Adobe Illustrator 16.0.0, SVG Export Plug-In . SVG Version: 6.00 Build 0)  -->
<!DOCTYPE svg PUBLIC "-//W3C//DTD SVG 1.1//EN" "http://www.w3.org/Graphics/SVG/1.1/DTD/svg11.dtd">
<svg version="1.1" id="Layer_1" xmlns="http://www.w3.org/2000/svg" xmlns:xlink="http://www.w3.org/1999/xlink" x="0px" y="0px"
	 width="199.104px" height="59.764px" viewBox="0 0 199.104 59.764" enable-background="new 0 0 199.104 59.764"
	 xml:space="preserve">
<g>
	<g>
		<path fill="#8D919C" d="M192.155,59.764H6.949C3.111,59.764,0,56.653,0,52.815v-40.5C0,8.477,3.11,5.367,6.949,5.367h185.204
			c3.839,0,6.948,3.109,6.948,6.947v40.5C199.104,56.653,195.992,59.764,192.155,59.764z"/>
		<path fill="#FFFFFF" d="M192.155,54.397H6.949C3.111,54.397,0,51.287,0,47.449v-40.5C0,3.111,3.111,0,6.949,0h185.204
			c3.839,0,6.948,3.109,6.948,6.949v40.5C199.104,51.287,195.992,54.397,192.155,54.397z"/>
	</g>
</g>
<g>
	<path fill="#F47920" d="M61.705,16.81v23.218H57.07V16.81h-4.637v23.218h-4.636V12.174h4.636v0.608
		c0.734-0.405,1.507-0.608,2.318-0.608h2.318c0.633,0,1.234,0.121,1.805,0.361c0.57,0.241,1.063,0.57,1.481,0.988
		s0.747,0.912,0.988,1.482C61.584,15.575,61.705,16.177,61.705,16.81z"/>
	<path fill="#F47920" d="M77.893,16.81v18.582c0,0.634-0.121,1.235-0.361,1.805c-0.241,0.57-0.57,1.064-0.988,1.482
		s-0.911,0.748-1.481,0.988s-1.172,0.361-1.805,0.361H68.62c-0.659,0-1.267-0.121-1.824-0.361c-0.557-0.24-1.045-0.57-1.463-0.988
		s-0.747-0.912-0.987-1.482c-0.241-0.569-0.361-1.171-0.361-1.805V16.81c0-0.633,0.12-1.235,0.361-1.805
		c0.24-0.57,0.569-1.064,0.987-1.482s0.906-0.747,1.463-0.988c0.558-0.24,1.165-0.361,1.824-0.361h4.637
		c0.633,0,1.234,0.121,1.805,0.361c0.57,0.241,1.063,0.57,1.481,0.988s0.747,0.912,0.988,1.482
		C77.772,15.575,77.893,16.177,77.893,16.81z M73.257,35.392V16.81H68.62v18.582H73.257z"/>
	<path fill="#F47920" d="M92.523,26.082c0.507,0.431,0.899,0.95,1.179,1.558c0.278,0.608,0.418,1.254,0.418,1.938v10.451h-4.674
		V29.578c0-0.329-0.108-0.601-0.323-0.817c-0.216-0.215-0.488-0.323-0.817-0.323h-3.496v11.59h-4.636V12.174h9.272
		c0.633,0,1.234,0.121,1.805,0.361c0.57,0.241,1.069,0.57,1.501,0.988c0.431,0.418,0.766,0.912,1.007,1.482
		c0.24,0.57,0.361,1.172,0.361,1.805v5.814c0,0.684-0.14,1.324-0.418,1.919C93.422,25.138,93.03,25.652,92.523,26.082z
		 M89.446,23.764V16.81h-4.637v6.954H89.446z"/>
	<path fill="#F47920" d="M119.616,16.81v23.218h-4.636V16.81h-4.636v23.218h-4.674V16.81h-4.637v23.218h-4.636V12.174h4.636v0.608
		c0.734-0.405,1.507-0.608,2.318-0.608h3.496c0.811,0,1.583,0.203,2.317,0.608c0.735-0.405,1.508-0.608,2.318-0.608h2.318h1.178
		c0.633,0,1.235,0.121,1.805,0.361c0.57,0.241,1.064,0.57,1.482,0.988s0.747,0.912,0.988,1.482
		C119.496,15.575,119.616,16.177,119.616,16.81z"/>
	<path fill="#F47920" d="M135.842,16.81v23.218h-4.674v-11.59h-4.637v11.59h-4.636V16.81c0-0.633,0.12-1.235,0.361-1.805
		c0.24-0.57,0.569-1.064,0.987-1.482s0.912-0.747,1.482-0.988c0.57-0.24,1.172-0.361,1.805-0.361h4.637
		c0.633,0,1.234,0.121,1.805,0.361c0.57,0.241,1.069,0.57,1.501,0.988c0.431,0.418,0.766,0.912,1.007,1.482
		C135.721,15.575,135.842,16.177,135.842,16.81z M131.168,23.764V16.81h-4.637v6.954H131.168z"/>
	<path fill="#F47920" d="M149.103,40.029h-11.02V12.174h4.636v23.218h4.637h1.747V40.029z"/>
</g>
</svg>
