<?xml version="1.0" encoding="utf-8"?>
<!-- Generator: Adobe Illustrator 16.0.0, SVG Export Plug-In . SVG Version: 6.00 Build 0)  -->
<!DOCTYPE svg PUBLIC "-//W3C//DTD SVG 1.1//EN" "http://www.w3.org/Graphics/SVG/1.1/DTD/svg11.dtd">
<svg version="1.1" id="Layer_1" xmlns="http://www.w3.org/2000/svg" xmlns:xlink="http://www.w3.org/1999/xlink" x="0px" y="0px"
	 width="199.104px" height="59.764px" viewBox="0 0 199.104 59.764" enable-background="new 0 0 199.104 59.764"
	 xml:space="preserve">
<g>
	<g>
		<path fill="#8D919C" d="M192.155,59.764H6.949C3.111,59.764,0,56.653,0,52.815v-40.5c0-3.838,3.11-6.948,6.949-6.948h185.205
			c3.838,0,6.948,3.11,6.948,6.948v40.5C199.104,56.653,195.992,59.764,192.155,59.764z"/>
		<path fill="#FFFFFF" d="M192.155,54.397H6.949C3.111,54.397,0,51.287,0,47.449v-40.5C0,3.111,3.111,0,6.949,0h185.205
			c3.838,0,6.948,3.11,6.948,6.949v40.5C199.104,51.287,195.992,54.397,192.155,54.397z"/>
	</g>
	<g enable-background="new    ">
		<path fill="#F47920" d="M52.651,32.751v3.68c0,2.72-2.2,4.879-4.919,4.879h-4.879c-2.72,0-4.879-2.159-4.879-4.879V16.874
			c0-2.72,2.16-4.88,4.879-4.88h4.879c2.72,0,4.919,2.16,4.919,4.88v3.679h-4.919v-3.679h-4.879v19.557h4.879v-3.68H52.651z"/>
		<path fill="#F47920" d="M69.611,36.431c0,2.72-2.16,4.879-4.879,4.879h-4.879c-2.72,0-4.879-2.159-4.879-4.879V16.874
			c0-2.72,2.16-4.88,4.879-4.88h4.879c2.72,0,4.879,2.16,4.879,4.88V36.431z M64.731,36.431V16.874h-4.879v19.557H64.731z"/>
		<path fill="#F47920" d="M86.651,41.31h-4.879V16.874h-4.879V41.31h-4.879V11.994h4.879v0.641c0.76-0.44,1.6-0.641,2.439-0.641
			h2.439c2.72,0,4.879,2.16,4.879,4.88V41.31z"/>
		<path fill="#F47920" d="M103.73,11.994v4.88h-4.919V41.31h-4.879V16.874h-4.879v-4.88H103.73z"/>
		<path fill="#F47920" d="M110.771,11.994V41.31h-4.879V11.994H110.771z"/>
		<path fill="#F47920" d="M127.85,41.31h-4.88V16.874h-4.879V41.31h-4.879V11.994h4.879v0.641c0.76-0.44,1.6-0.641,2.439-0.641
			h2.439c2.721,0,4.88,2.16,4.88,4.88V41.31z"/>
		<path fill="#F47920" d="M144.929,11.994V41.31h-4.919v-0.64c-0.76,0.439-1.6,0.64-2.439,0.64h-2.439
			c-2.72,0-4.88-2.159-4.88-4.879V11.994h4.88v24.437h4.879V11.994H144.929z"/>
		<path fill="#F47920" d="M158.929,36.431v4.879h-6.719c-2.719,0-4.879-2.159-4.879-4.879V22.992v-6.118
			c0-2.72,2.16-4.88,4.879-4.88h4.879h1.84v4.88h-6.719v7.318h4.879h1.84v4.919h-6.719v7.319h4.879H158.929z"/>
	</g>
</g>
</svg>
