<?xml version="1.0" encoding="utf-8"?>
<!-- Generator: Adobe Illustrator 16.0.0, SVG Export Plug-In . SVG Version: 6.00 Build 0)  -->
<!DOCTYPE svg PUBLIC "-//W3C//DTD SVG 1.1//EN" "http://www.w3.org/Graphics/SVG/1.1/DTD/svg11.dtd">
<svg version="1.1" id="Layer_1" xmlns="http://www.w3.org/2000/svg" xmlns:xlink="http://www.w3.org/1999/xlink" x="0px" y="0px"
	 width="199.104px" height="59.764px" viewBox="0 0 199.104 59.764" enable-background="new 0 0 199.104 59.764"
	 xml:space="preserve">
<g>
	<g>
		<path fill="#8D919C" d="M192.155,59.764H6.949C3.111,59.764,0,56.653,0,52.815v-40.5c0-3.838,3.11-6.948,6.949-6.948h185.205
			c3.838,0,6.948,3.11,6.948,6.948v40.5C199.104,56.653,195.992,59.764,192.155,59.764z"/>
		<path fill="#FFFFFF" d="M192.155,54.397H6.949C3.111,54.397,0,51.287,0,47.449v-40.5C0,3.111,3.111,0,6.949,0h185.205
			c3.838,0,6.948,3.11,6.948,6.949v40.5C199.104,51.287,195.992,54.397,192.155,54.397z"/>
	</g>
	<g enable-background="new    ">
		<path fill="#F47920" d="M80.091,11.994V41.31h-4.919V29.112h-4.879V41.31h-4.879V11.994h4.879v12.238h4.879V11.994H80.091z"/>
		<path fill="#F47920" d="M97.171,41.31h-4.919V29.112h-4.879V41.31h-4.879V16.874c0-2.72,2.16-4.88,4.879-4.88h4.879
			c2.72,0,4.919,2.16,4.919,4.88V41.31z M92.251,24.193v-7.318h-4.879v7.318H92.251z"/>
		<path fill="#F47920" d="M114.21,30.312V41.31h-4.92V30.312c0-0.68-0.52-1.2-1.199-1.2h-3.68V41.31h-4.879V11.994h9.758
			c2.721,0,4.92,2.16,4.92,4.88v6.118c0,1.44-0.6,2.72-1.68,3.64C113.611,27.552,114.21,28.872,114.21,30.312z M109.29,24.193
			v-7.318h-4.879v7.318H109.29z"/>
		<path fill="#F47920" d="M131.29,36.431c0,2.72-2.2,4.879-4.92,4.879h-9.758V11.994h9.758c2.72,0,4.92,2.16,4.92,4.88V36.431z
			 M126.37,36.431V16.874h-4.879v19.557H126.37z"/>
	</g>
</g>
</svg>
