<?xml version="1.0" encoding="utf-8"?>
<!-- Generator: Adobe Illustrator 16.0.0, SVG Export Plug-In . SVG Version: 6.00 Build 0)  -->
<!DOCTYPE svg PUBLIC "-//W3C//DTD SVG 1.1//EN" "http://www.w3.org/Graphics/SVG/1.1/DTD/svg11.dtd">
<svg version="1.1" id="Layer_1" xmlns="http://www.w3.org/2000/svg" xmlns:xlink="http://www.w3.org/1999/xlink" x="0px" y="0px"
	 width="199.104px" height="59.764px" viewBox="0 0 199.104 59.764" enable-background="new 0 0 199.104 59.764"
	 xml:space="preserve">
<g>
	<g>
		<path fill="#8D919C" d="M192.155,59.764H6.949C3.111,59.764,0,56.653,0,52.815v-40.5C0,8.477,3.11,5.367,6.949,5.367h185.204
			c3.839,0,6.948,3.109,6.948,6.947v40.5C199.104,56.653,195.992,59.764,192.155,59.764z"/>
		<path fill="#FFFFFF" d="M192.155,54.397H6.949C3.111,54.397,0,51.287,0,47.449v-40.5C0,3.111,3.111,0,6.949,0h185.204
			c3.839,0,6.948,3.109,6.948,6.949v40.5C199.104,51.287,195.992,54.397,192.155,54.397z"/>
	</g>
	<g>
		<path fill="#F47920" d="M97.213,36.153c0,2.652-2.106,4.759-4.758,4.759h-4.758c-2.652,0-4.758-2.106-4.758-4.759V17.081
			c0-2.652,2.106-4.758,4.758-4.758h4.758c2.652,0,4.758,2.106,4.758,4.758V36.153z M92.454,36.153V17.081h-4.758v19.072H92.454z"/>
		<path fill="#F47920" d="M109.107,24.218c2.652,0,4.759,2.185,4.759,4.797v11.896h-4.797V29.015h-4.759v11.896h-4.758V12.323h4.758
			V23.36l4.408-11.037h5.147L109.107,24.218z"/>
	</g>
</g>
</svg>
