<?xml version="1.0" encoding="utf-8"?>
<!-- Generator: Adobe Illustrator 16.0.0, SVG Export Plug-In . SVG Version: 6.00 Build 0)  -->
<!DOCTYPE svg PUBLIC "-//W3C//DTD SVG 1.1//EN" "http://www.w3.org/Graphics/SVG/1.1/DTD/svg11.dtd">
<svg version="1.1" id="Layer_1" xmlns="http://www.w3.org/2000/svg" xmlns:xlink="http://www.w3.org/1999/xlink" x="0px" y="0px"
	 width="48.72px" height="49.264px" viewBox="0 0 48.72 49.264" enable-background="new 0 0 48.72 49.264" xml:space="preserve">
<g>
	<g>
		<g>
			<path fill="#8D919C" d="M42.992,49.264H5.729C2.564,49.264,0,46.7,0,43.536V10.152c0-3.164,2.564-5.729,5.729-5.729h37.264
				c3.163,0,5.728,2.565,5.728,5.729v33.384C48.72,46.7,46.155,49.264,42.992,49.264z"/>
			<path fill="#FFFFFF" d="M42.992,44.84H5.729C2.564,44.84,0,42.276,0,39.113V5.729C0,2.564,2.564,0,5.729,0h37.264
				c3.163,0,5.728,2.564,5.728,5.729v33.384C48.72,42.276,46.155,44.84,42.992,44.84z"/>
		</g>
	</g>
	<path fill-rule="evenodd" clip-rule="evenodd" fill="#F47920" d="M29.025,18.262c0.789,1.393,1.067,2.739,1.067,4.039
		c0,1.068-0.65,4.829-1.996,4.829c-0.511,0-0.836-0.464-0.836-0.835c0-0.232,0.789-1.765,0.929-2.369
		c0.093-0.371,0.186-0.789,0.232-1.16V21.79c-0.093-0.417-0.186-0.975-0.325-1.393c-0.093-0.372-0.278-0.79-0.465-1.114
		c-0.231-0.464-0.371-0.603-0.371-0.975c0-0.51,0.325-0.836,0.836-0.836C28.514,17.473,28.699,17.659,29.025,18.262z M31.904,15.987
		c1.16,1.903,1.856,4.317,1.856,6.313c0,0.14-0.139,1.439-0.232,2.136c-0.046,0.372-0.139,0.789-0.278,1.207
		c-0.047,0.233-1.346,4.085-2.507,4.085c-0.512,0-0.837-0.371-0.837-0.835c0-0.51,0.558-1.021,0.791-1.531
		c0.139-0.232,0.277-0.511,0.37-0.743c0.372-0.789,0.651-1.672,0.79-2.461c0.093-0.371,0.139-0.742,0.187-1.114v-1.486
		c-0.048-0.371-0.14-0.881-0.233-1.3c-0.046-0.325-0.139-0.743-0.279-1.067c-0.185-0.603-0.464-1.3-0.834-1.903
		c-0.233-0.464-0.837-1.114-0.837-1.625c0-0.372,0.324-0.836,0.837-0.836C31.16,14.827,31.579,15.43,31.904,15.987z M34.225,13.341
		c1.394,1.903,2.275,4.085,2.6,6.035c0.093,0.464,0.279,1.485,0.279,1.625v2.6c-0.232,1.532-0.511,2.972-1.068,4.411
		c-0.463,1.207-1.206,2.785-2.274,3.9c-0.278,0.278-0.418,0.232-0.604,0.232c-0.509,0-0.834-0.372-0.834-0.835
		c0-0.372,1.206-1.996,1.438-2.461c0.696-1.346,1.207-2.692,1.439-4.039c0.093-0.511,0.185-1.068,0.232-1.625v-1.764
		c-0.048-0.557-0.14-1.253-0.278-1.811c-0.047-0.371-0.14-0.789-0.279-1.114c-0.094-0.371-0.233-0.835-0.418-1.207
		c-0.232-0.604-0.558-1.3-0.929-1.903c-0.186-0.371-0.464-0.789-0.742-1.114c-0.324-0.418-0.511-0.696-0.511-1.021
		c0-0.418,0.325-0.835,0.835-0.835C33.622,12.413,33.761,12.691,34.225,13.341z M25.729,13.109v18.337
		c0.047,0.465-0.603,0.79-0.882,0.79c-0.093,0-0.278-0.046-0.371-0.139c-0.232-0.14-6.267-5.478-6.592-5.478h-4.735
		c-0.325,0.139-1.532,0-1.532-0.742v-7.243c0-0.372,0.418-0.789,0.742-0.789h5.757c2.089-1.764,4.087-3.574,6.175-5.292
		c0.14-0.139,0.464-0.232,0.604-0.232C25.265,12.32,25.729,12.645,25.729,13.109z"/>
</g>
</svg>
