<?xml version="1.0" encoding="utf-8"?>
<!-- Generator: Adobe Illustrator 16.0.0, SVG Export Plug-In . SVG Version: 6.00 Build 0)  -->
<!DOCTYPE svg PUBLIC "-//W3C//DTD SVG 1.1//EN" "http://www.w3.org/Graphics/SVG/1.1/DTD/svg11.dtd">
<svg version="1.1" id="Layer_1" xmlns="http://www.w3.org/2000/svg" xmlns:xlink="http://www.w3.org/1999/xlink" x="0px" y="0px"
	 width="48.72px" height="49.264px" viewBox="0 0 48.72 49.264" enable-background="new 0 0 48.72 49.264" xml:space="preserve">
<g>
	<g>
		<g>
			<path fill="#8D919C" d="M42.992,49.264H5.729C2.564,49.264,0,46.7,0,43.536V10.152c0-3.164,2.564-5.729,5.729-5.729h37.264
				c3.163,0,5.728,2.565,5.728,5.729v33.384C48.72,46.7,46.155,49.264,42.992,49.264z"/>
			<path fill="#FFFFFF" d="M42.992,44.84H5.729C2.564,44.84,0,42.276,0,39.113V5.729C0,2.564,2.564,0,5.729,0h37.264
				c3.163,0,5.728,2.564,5.728,5.729v33.384C48.72,42.276,46.155,44.84,42.992,44.84z"/>
		</g>
	</g>
	<g>
		<g>
			<path fill-rule="evenodd" clip-rule="evenodd" fill="#F47920" d="M36.129,24.26V12.747c0-0.003,0.001-0.005,0.001-0.008
				c0-0.418-0.127-0.806-0.345-1.128c-0.362-0.538-0.978-0.891-1.674-0.891c-0.003,0-0.006,0-0.009,0l-11.513,0
				c-1.114,0-2.019,0.903-2.019,2.018s0.904,2.018,2.019,2.018h9.503v9.503c0,1.115,0.903,2.019,2.019,2.018
				C35.226,26.278,36.129,25.375,36.129,24.26z"/>
			<path fill-rule="evenodd" clip-rule="evenodd" fill="#F47920" d="M26.27,34.12l-11.514,0c-0.002,0-0.005,0-0.008,0
				c-0.418,0-0.807-0.126-1.129-0.345c-0.537-0.363-0.891-0.977-0.891-1.674c0.001-0.002,0.001-0.005,0.001-0.008V20.581
				c0-1.115,0.903-2.018,2.019-2.018c1.114,0,2.018,0.903,2.018,2.018v9.503l9.504,0c1.114,0,2.019,0.903,2.018,2.018
				C28.287,33.217,27.384,34.12,26.27,34.12z"/>
			<path fill-rule="evenodd" clip-rule="evenodd" fill="#F47920" d="M18.368,31.97c-0.982,0.983-2.575,0.983-3.559,0l0,0
				c-0.982-0.983-0.982-2.576,0-3.559l15.541-15.541c0.982-0.983,2.575-0.983,3.559,0l0,0c0.983,0.983,0.983,2.576,0,3.559
				L18.368,31.97z"/>
		</g>
	</g>
</g>
</svg>
