<?xml version="1.0" encoding="utf-8"?>
<!-- Generator: Adobe Illustrator 16.0.0, SVG Export Plug-In . SVG Version: 6.00 Build 0)  -->
<!DOCTYPE svg PUBLIC "-//W3C//DTD SVG 1.1//EN" "http://www.w3.org/Graphics/SVG/1.1/DTD/svg11.dtd">
<svg version="1.1" id="Layer_1" xmlns="http://www.w3.org/2000/svg" xmlns:xlink="http://www.w3.org/1999/xlink" x="0px" y="0px"
	 width="56.723px" height="49.264px" viewBox="0 0 56.723 49.264" enable-background="new 0 0 56.723 49.264" xml:space="preserve">
<g>
	<g>
		<g>
			<path fill="#8D919C" d="M50.992,49.264H5.729C2.564,49.264,0,46.7,0,43.536V10.152c0-3.164,2.562-5.729,5.729-5.729h45.266
				c3.163,0,5.729,2.562,5.729,5.729v33.388C56.72,46.7,54.155,49.264,50.992,49.264z"/>
			<path fill="#FFFFFF" d="M50.992,44.84H5.729C2.564,44.84,0,42.276,0,39.113V5.729C0,2.564,2.564,0,5.729,0h45.266
				c3.163,0,5.729,2.562,5.729,5.729v33.384C56.72,42.276,54.155,44.84,50.992,44.84z"/>
		</g>
	</g>
	<path fill-rule="evenodd" clip-rule="evenodd" fill="#F47920" d="M43.78,13.193c0,2.111-5.634,6.862-7.568,8.973
		c-3.167,3.342-6.51,6.861-9.677,10.205c-0.704,0.527-1.76,0.879-2.288,0.879c-1.759,0-10.732-8.444-11.084-8.972
		c-0.352-0.528-0.176-1.056-0.176-1.584c0-1.76,1.231-3.343,2.991-3.343c1.935,0,7.741,6.334,8.621,6.334
		c0.528,0,10.028-10.381,14.958-15.307h1.056C42.372,10.378,43.78,11.785,43.78,13.193z"/>
</g>
</svg>
