<?xml version="1.0" encoding="utf-8"?>
<!-- Generator: Adobe Illustrator 16.0.0, SVG Export Plug-In . SVG Version: 6.00 Build 0)  -->
<!DOCTYPE svg PUBLIC "-//W3C//DTD SVG 1.1//EN" "http://www.w3.org/Graphics/SVG/1.1/DTD/svg11.dtd">
<svg version="1.1" id="Layer_1" xmlns="http://www.w3.org/2000/svg" xmlns:xlink="http://www.w3.org/1999/xlink" x="0px" y="0px"
	 width="69.104px" height="59.764px" viewBox="0 0 69.104 59.764" enable-background="new 0 0 69.104 59.764" xml:space="preserve">
<g>
	<g>
		<g>
			<path fill="#8D919C" d="M62.156,59.764H6.949C3.111,59.764,0,56.653,0,52.815v-40.5c0-3.838,3.111-6.949,6.949-6.949h55.207
				c3.836,0,6.947,3.111,6.947,6.949v40.5C69.103,56.653,65.992,59.764,62.156,59.764z"/>
			<path fill="#395E9A" d="M62.156,54.397H6.949C3.111,54.397,0,51.287,0,47.449v-40.5C0,3.111,3.111,0,6.949,0h55.207
				c3.836,0,6.947,3.111,6.947,6.949v40.5C69.103,51.287,65.992,54.397,62.156,54.397z"/>
		</g>
	</g>
	<path fill="#FFFFFF" d="M40.519,28.394l0.623-4.838h-4.791v-3.088c0-1.398,0.393-2.354,2.398-2.354h2.561v-4.326
		c-0.443-0.059-1.961-0.191-3.73-0.191c-3.693,0-6.221,2.256-6.221,6.393v3.566h-4.176v4.838h4.176v12.408h4.992V28.394H40.519z"/>
</g>
</svg>
