<?xml version="1.0" encoding="utf-8"?>
<!-- Generator: Adobe Illustrator 16.0.0, SVG Export Plug-In . SVG Version: 6.00 Build 0)  -->
<!DOCTYPE svg PUBLIC "-//W3C//DTD SVG 1.1//EN" "http://www.w3.org/Graphics/SVG/1.1/DTD/svg11.dtd">
<svg version="1.1" id="Layer_1" xmlns="http://www.w3.org/2000/svg" xmlns:xlink="http://www.w3.org/1999/xlink" x="0px" y="0px"
	 width="48.72px" height="49.264px" viewBox="0 0 48.72 49.264" enable-background="new 0 0 48.72 49.264" xml:space="preserve">
<g>
	<g>
		<g>
			<path fill="#8D919C" d="M42.992,49.264H5.729C2.564,49.264,0,46.7,0,43.536V10.152c0-3.164,2.564-5.729,5.729-5.729h37.264
				c3.163,0,5.728,2.565,5.728,5.729v33.384C48.72,46.7,46.155,49.264,42.992,49.264z"/>
			<path fill="#FFFFFF" d="M42.992,44.84H5.729C2.564,44.84,0,42.276,0,39.113V5.729C0,2.564,2.564,0,5.729,0h37.264
				c3.163,0,5.728,2.564,5.728,5.729v33.384C48.72,42.276,46.155,44.84,42.992,44.84z"/>
		</g>
	</g>
	<path fill-rule="evenodd" clip-rule="evenodd" fill="#F47920" d="M28.125,14.014c2.904,2.431,5.869,5.099,8.774,7.589
		c-2.787,2.49-5.691,4.98-8.537,7.412c-0.237,0.178-0.356,0.237-0.475,0.237c-0.179,0-0.475-0.059-0.593-0.237
		c-0.18-0.119-0.298-0.355-0.298-0.474v-3.38h-7.055c-0.118-0.059-0.297-0.059-0.355-0.119c-0.178-0.059-0.771-0.533-0.771-0.771
		v-5.277c0.06-0.475,0.652-0.89,1.127-0.89h7.055v-3.438c0.238-0.593,0.356-0.652,0.831-0.652
		C27.947,14.014,28.006,13.955,28.125,14.014z M32.097,6.484c1.187-0.06,3.024,1.66,3.024,2.905v6.64l-2.312-2.016V9.686
		c-0.06-0.178-0.534-0.89-1.008-0.89H15.081c-0.237,0.06-0.947,0.534-0.947,0.949v23.716c0,0.237,0.533,1.008,0.947,1.008h16.721
		c0.296-0.059,0.948-0.593,1.008-0.948v-4.269l2.312-2.016v6.581c0,1.068-1.721,2.965-2.905,2.965h-17.55
		c-1.187-0.119-2.847-1.779-2.847-2.905V9.389c0-1.246,1.72-2.965,2.965-2.905H32.097z"/>
</g>
</svg>
