<?xml version="1.0" encoding="utf-8"?>
<!-- Generator: Adobe Illustrator 16.0.0, SVG Export Plug-In . SVG Version: 6.00 Build 0)  -->
<!DOCTYPE svg PUBLIC "-//W3C//DTD SVG 1.1//EN" "http://www.w3.org/Graphics/SVG/1.1/DTD/svg11.dtd">
<svg version="1.1" id="Layer_1" xmlns="http://www.w3.org/2000/svg" xmlns:xlink="http://www.w3.org/1999/xlink" x="0px" y="0px"
	 width="199.104px" height="59.764px" viewBox="0 0 199.104 59.764" enable-background="new 0 0 199.104 59.764"
	 xml:space="preserve">
<g>
	<g>
		<path fill="#8D919C" d="M192.155,59.764H6.949C3.111,59.764,0,56.653,0,52.815v-40.5C0,8.477,3.11,5.367,6.949,5.367h185.204
			c3.839,0,6.948,3.109,6.948,6.947v40.5C199.104,56.653,195.992,59.764,192.155,59.764z"/>
		<path fill="#FFFFFF" d="M192.155,54.397H6.949C3.111,54.397,0,51.287,0,47.449v-40.5C0,3.111,3.111,0,6.949,0h185.204
			c3.839,0,6.948,3.109,6.948,6.949v40.5C199.104,51.287,195.992,54.397,192.155,54.397z"/>
	</g>
	<g>
		<path fill="#F47920" d="M28.125,11.812V40.4h-4.797V28.505H18.57V40.4h-4.758V11.812h4.758v11.934h4.758V11.812H28.125z"/>
		<path fill="#F47920" d="M44.739,35.642c0,2.652-2.106,4.758-4.758,4.758h-4.758c-2.652,0-4.758-2.105-4.758-4.758V16.57
			c0-2.652,2.106-4.758,4.758-4.758h4.758c2.652,0,4.758,2.106,4.758,4.758V35.642z M39.981,35.642V16.57h-4.758v19.072H39.981z"/>
		<path fill="#F47920" d="M70.908,11.812V40.4H66.15v-0.623c-0.741,0.429-1.56,0.623-2.379,0.623h-3.588
			c-0.819,0-1.638-0.194-2.379-0.623c-0.741,0.429-1.56,0.623-2.379,0.623h-2.379h-1.209c-2.652,0-4.758-2.105-4.758-4.758v-23.83
			h4.758v23.83h4.758v-23.83h4.797v23.83h4.758v-23.83H70.908z"/>
		<path fill="#F47920" d="M95.75,11.812v4.758h-4.797V40.4h-4.758V16.57h-4.758v-4.758H95.75z"/>
		<path fill="#F47920" d="M112.129,35.642c0,2.652-2.105,4.758-4.758,4.758h-4.759c-2.651,0-4.758-2.105-4.758-4.758V16.57
			c0-2.652,2.106-4.758,4.758-4.758h4.759c2.652,0,4.758,2.106,4.758,4.758V35.642z M107.371,35.642V16.57h-4.759v19.072H107.371z"
			/>
		<path fill="#F47920" d="M136.972,23.707c0,2.652-2.146,4.797-4.797,4.797h-4.759V40.4h-4.758V11.812h9.517
			c2.651,0,4.797,2.106,4.797,4.758V23.707z M132.175,23.707V16.57h-4.759v7.137H132.175z"/>
		<path fill="#F47920" d="M150.271,35.642V40.4H138.96V11.812h4.758v23.83h4.759H150.271z"/>
		<path fill="#F47920" d="M166.533,40.4h-4.797V28.505h-4.759V40.4h-4.758V16.57c0-2.652,2.106-4.758,4.758-4.758h4.759
			c2.652,0,4.797,2.106,4.797,4.758V40.4z M161.737,23.707V16.57h-4.759v7.137H161.737z"/>
		<path fill="#F47920" d="M183.148,11.812v11.934c0,2.652-2.146,4.758-4.797,4.758V40.4h-4.759V28.505
			c-2.651,0-4.758-2.106-4.758-4.758V11.812h4.758v11.934h4.759V11.812H183.148z"/>
	</g>
</g>
</svg>
