<?xml version="1.0" encoding="utf-8"?>
<!-- Generator: Adobe Illustrator 16.0.0, SVG Export Plug-In . SVG Version: 6.00 Build 0)  -->
<!DOCTYPE svg PUBLIC "-//W3C//DTD SVG 1.1//EN" "http://www.w3.org/Graphics/SVG/1.1/DTD/svg11.dtd">
<svg version="1.1" id="Layer_1" xmlns="http://www.w3.org/2000/svg" xmlns:xlink="http://www.w3.org/1999/xlink" x="0px" y="0px"
	 width="199.104px" height="59.764px" viewBox="0 0 199.104 59.764" enable-background="new 0 0 199.104 59.764"
	 xml:space="preserve">
<g>
	<g>
		<path fill="#8D919C" d="M192.155,59.764H6.949C3.111,59.764,0,56.653,0,52.815v-40.5c0-3.838,3.11-6.948,6.949-6.948h185.205
			c3.838,0,6.948,3.11,6.948,6.948v40.5C199.104,56.653,195.992,59.764,192.155,59.764z"/>
		<path fill="#FFFFFF" d="M192.155,54.397H6.949C3.111,54.397,0,51.287,0,47.449v-40.5C0,3.111,3.111,0,6.949,0h185.205
			c3.838,0,6.948,3.11,6.948,6.949v40.5C199.104,51.287,195.992,54.397,192.155,54.397z"/>
	</g>
	<g enable-background="new    ">
		<path fill="#F47920" d="M78.791,36.431v4.879h-6.719c-2.72,0-4.879-2.159-4.879-4.879V22.992v-6.118c0-2.72,2.16-4.88,4.879-4.88
			h4.879h1.84v4.88h-6.719v7.318h4.879h1.84v4.919h-6.719v7.319h4.879H78.791z"/>
		<path fill="#F47920" d="M95.67,41.31H90.75V29.112h-4.879V41.31h-4.879V16.874c0-2.72,2.16-4.88,4.879-4.88h4.879
			c2.72,0,4.919,2.16,4.919,4.88V41.31z M90.75,24.193v-7.318h-4.879v7.318H90.75z"/>
		<path fill="#F47920" d="M107.79,31.551l-9.758-7.358v-7.318c0-2.72,2.16-4.88,4.879-4.88h4.879c2.72,0,4.879,2.16,4.879,4.88
			v3.679h-4.879v-3.679h-4.879v4.879l9.758,7.358v7.319c0,2.72-2.159,4.879-4.879,4.879h-4.879c-2.72,0-4.879-2.159-4.879-4.879
			v-3.68h4.879v3.68h4.879V31.551z"/>
		<path fill="#F47920" d="M129.709,11.994v12.238c0,2.72-2.2,4.879-4.919,4.879V41.31h-4.879V29.112c-2.721,0-4.88-2.159-4.88-4.879
			V11.994h4.88v12.238h4.879V11.994H129.709z"/>
	</g>
</g>
</svg>
