<?xml version="1.0" encoding="utf-8"?>
<!-- Generator: Adobe Illustrator 16.0.0, SVG Export Plug-In . SVG Version: 6.00 Build 0)  -->
<!DOCTYPE svg PUBLIC "-//W3C//DTD SVG 1.1//EN" "http://www.w3.org/Graphics/SVG/1.1/DTD/svg11.dtd">
<svg version="1.1" id="Layer_1" xmlns="http://www.w3.org/2000/svg" xmlns:xlink="http://www.w3.org/1999/xlink" x="0px" y="0px"
	 width="912.301px" height="294.695px" viewBox="0 0 912.301 294.695" enable-background="new 0 0 912.301 294.695"
	 xml:space="preserve">
<g>
	<g>
		<path fill="#F3715C" d="M296.312,5.133c-46.73,16.48-71.254,67.723-54.774,114.458l0,0l10.756-3.793l2.451-0.866l8.515-3.004
			l2.451-0.862l8.517-3.004l2.452-0.865l8.514-3l2.452-0.867l7.671-2.704l2.451-0.865l8.516-3.003l2.452-0.864l8.515-3.003
			l2.451-0.865l8.518-3.004l2.45-0.863l7.672-2.706l2.45-0.863l8.517-3.004l2.451-0.865l8.516-3.003l2.452-0.864l8.516-3.003
			l2.451-0.865l7.673-2.704l2.451-0.867l8.515-3.002l2.452-0.864l15.988-5.639l0,0C394.292,13.174,343.047-11.349,296.312,5.133z
			 M259.891,88.255c0.634-26.74,17.538-51.601,44.222-61.011c26.682-9.409,55.443-0.653,72.711,19.774L259.891,88.255z"/>
		<g>
			<path fill="#FFFFFF" d="M253.76,111.913c-0.453-1.28-1.406-2.126-2.12-1.874c-0.711,0.252-0.926,1.509-0.474,2.789l0.834,2.366
				c0.08,0.222,0.189,0.409,0.294,0.604l2.451-0.866c-0.039-0.214-0.072-0.429-0.151-0.651L253.76,111.913z"/>
			<path fill="#FFFFFF" d="M264.725,108.045c-0.451-1.28-1.405-2.125-2.118-1.874s-0.927,1.507-0.475,2.791l0.835,2.363
				c0.078,0.223,0.188,0.41,0.292,0.603l2.451-0.862c-0.039-0.218-0.073-0.433-0.151-0.656L264.725,108.045z"/>
			<path fill="#FFFFFF" d="M275.694,104.178c-0.453-1.284-1.406-2.127-2.121-1.876c-0.712,0.252-0.927,1.508-0.473,2.79l0.833,2.367
				c0.079,0.223,0.189,0.412,0.294,0.604l2.452-0.865c-0.04-0.215-0.073-0.431-0.151-0.652L275.694,104.178z"/>
			<path fill="#FFFFFF" d="M284.676,94.686c-0.452-1.283-1.405-2.127-2.118-1.875c-0.714,0.252-0.928,1.505-0.475,2.79l2.818,7.991
				c0.078,0.222,0.189,0.41,0.293,0.604l2.452-0.867c-0.039-0.215-0.072-0.431-0.151-0.653L284.676,94.686z"/>
			<path fill="#FFFFFF" d="M296.783,96.74c-0.451-1.282-1.406-2.125-2.118-1.873c-0.715,0.25-0.928,1.505-0.477,2.789l0.836,2.365
				c0.078,0.224,0.188,0.411,0.292,0.606l2.451-0.865c-0.039-0.216-0.071-0.433-0.149-0.656L296.783,96.74z"/>
			<path fill="#FFFFFF" d="M307.75,92.873c-0.452-1.283-1.406-2.124-2.119-1.874c-0.712,0.251-0.926,1.505-0.474,2.788l0.834,2.366
				c0.079,0.223,0.188,0.411,0.292,0.604l2.452-0.864c-0.039-0.216-0.072-0.433-0.15-0.655L307.75,92.873z"/>
			<path fill="#FFFFFF" d="M318.717,89.005c-0.452-1.283-1.406-2.127-2.119-1.875c-0.714,0.252-0.928,1.507-0.477,2.791l0.836,2.365
				c0.079,0.223,0.188,0.411,0.293,0.604l2.451-0.865c-0.04-0.215-0.072-0.43-0.149-0.653L318.717,89.005z"/>
			<path fill="#FFFFFF" d="M327.701,79.513c-0.454-1.283-1.406-2.127-2.12-1.875c-0.712,0.252-0.926,1.507-0.475,2.789l2.82,7.991
				c0.079,0.224,0.188,0.411,0.293,0.603l2.45-0.863c-0.039-0.218-0.072-0.433-0.149-0.655L327.701,79.513z"/>
			<path fill="#FFFFFF" d="M339.807,81.569c-0.451-1.285-1.404-2.128-2.118-1.876c-0.714,0.252-0.928,1.507-0.474,2.79l0.834,2.365
				c0.078,0.224,0.188,0.411,0.293,0.604l2.45-0.863c-0.039-0.218-0.07-0.433-0.15-0.656L339.807,81.569z"/>
			<path fill="#FFFFFF" d="M350.773,77.702c-0.452-1.285-1.405-2.127-2.119-1.876c-0.714,0.252-0.926,1.507-0.474,2.789l0.835,2.366
				c0.078,0.222,0.187,0.413,0.292,0.604l2.451-0.865c-0.039-0.215-0.072-0.43-0.15-0.653L350.773,77.702z"/>
			<path fill="#FFFFFF" d="M361.741,73.832c-0.451-1.284-1.405-2.126-2.119-1.874c-0.714,0.25-0.928,1.507-0.474,2.787l0.834,2.368
				c0.078,0.222,0.189,0.411,0.292,0.603l2.452-0.864c-0.038-0.218-0.072-0.431-0.151-0.654L361.741,73.832z"/>
			<path fill="#FFFFFF" d="M370.724,64.338c-0.452-1.28-1.406-2.124-2.118-1.872c-0.714,0.252-0.928,1.505-0.475,2.788l2.818,7.991
				c0.077,0.222,0.188,0.411,0.293,0.604l2.451-0.865c-0.04-0.215-0.073-0.43-0.15-0.653L370.724,64.338z"/>
			<path fill="#FFFFFF" d="M382.833,66.393c-0.454-1.282-1.406-2.125-2.121-1.873c-0.713,0.25-0.925,1.507-0.474,2.789l0.836,2.366
				c0.077,0.222,0.188,0.41,0.292,0.604l2.451-0.867c-0.039-0.213-0.073-0.431-0.152-0.653L382.833,66.393z"/>
			<path fill="#FFFFFF" d="M393.799,62.526c-0.453-1.28-1.406-2.125-2.121-1.874c-0.712,0.252-0.924,1.505-0.473,2.791l0.833,2.363
				c0.079,0.223,0.188,0.411,0.293,0.604l2.452-0.864c-0.04-0.218-0.073-0.433-0.151-0.655L393.799,62.526z"/>
		</g>
		<path opacity="0.3" fill="#CF574A" d="M254.745,114.932l8.515-3.001l2.451-0.865l8.517-3.004l2.452-0.865l8.514-3l2.452-0.867
			l7.671-2.704l2.451-0.865l8.518-3.003l2.451-0.864l8.515-3.003l2.451-0.865l8.518-3.004l2.45-0.863l7.672-2.706l2.45-0.863
			l8.517-3.004l2.451-0.865l8.516-3.003l2.452-0.864l8.516-3.003l2.451-0.865l7.673-2.704l2.451-0.867l8.515-3.002l2.452-0.867
			l15.988-5.636l0,0c-7.974-22.609-24.095-39.996-43.894-50.081c-1.937,6.304-5.181,13.368-10.376,21.048
			c7.695,3.965,14.633,9.416,20.321,16.144l-55.845,19.693c-19.083,14.534-45.397,30.093-81.514,46.079
			c0.607,2.274,1.278,4.543,2.073,6.801l0,0l10.756-3.793L254.745,114.932z"/>
	</g>
	<g>
		<polygon fill="none" points="81.394,194.594 140.458,254.218 184.654,210.439 		"/>
		<path fill="#FBAD21" d="M245.162,190.776L0.081,153.167l16.121,16.274l2.615,2.642l8.445,8.523l2.615,2.641l8.443,8.523
			l2.616,2.641l8.446,8.525l2.616,2.642l7.592,7.664l2.616,2.64l8.443,8.525l2.616,2.64l8.445,8.525l2.615,2.641l8.444,8.522
			l2.615,2.643l7.594,7.665l2.615,2.641l8.443,8.524l2.616,2.639l8.444,8.526l2.615,2.639l8.446,8.526l2.614,2.64l1.494,1.507
			L245.162,190.776z M81.394,194.594l103.26,15.845l-44.196,43.779L81.394,194.594z"/>
		<path opacity="0.3" fill="#B25A27" d="M167.584,227.347l-27.126,26.871l-37.161-37.203
			c-33.73-10.412-69.281-30.594-103.103-63.275L0,153.709l16.163,16.004l2.635,2.505l8.455,8.457l2.622,2.606l8.446,8.507
			l2.615,2.632l8.447,8.522l2.615,2.637l7.594,7.665l2.616,2.64l8.443,8.523l2.616,2.64l8.445,8.526l2.615,2.64l8.444,8.522
			l2.615,2.643l7.594,7.665l2.615,2.641l8.443,8.524l2.616,2.639l8.444,8.526l2.615,2.639l8.446,8.526l2.614,2.64l1.494,1.507
			l70.211-69.551C197.964,226.813,183.453,227.839,167.584,227.347z"/>
		<g>
			<path fill="#FFFFFF" d="M21.51,166.799c-0.721-0.726-2.274-0.364-3.452,0.805l-1.856,1.838l2.615,2.642l1.857-1.84
				C21.852,169.077,22.228,167.527,21.51,166.799z"/>
			<path fill="#FFFFFF" d="M32.571,177.966c-0.72-0.728-2.273-0.364-3.452,0.804l-1.856,1.837l2.615,2.641l1.857-1.839
				C32.913,180.243,33.29,178.692,32.571,177.966z"/>
			<path fill="#FFFFFF" d="M43.629,189.13c-0.719-0.727-2.273-0.364-3.451,0.803l-1.857,1.838l2.616,2.641l1.857-1.838
				C43.972,191.406,44.349,189.855,43.629,189.13z"/>
			<path fill="#FFFFFF" d="M60.415,194.625c-0.72-0.727-2.272-0.366-3.452,0.802l-7.58,7.51l2.616,2.642l7.58-7.511
				C60.757,196.9,61.134,195.35,60.415,194.625z"/>
			<path fill="#FFFFFF" d="M64.898,210.6c-0.72-0.724-2.273-0.364-3.452,0.805l-1.855,1.838l2.616,2.64l1.855-1.837
				C65.241,212.876,65.618,211.327,64.898,210.6z"/>
			<path fill="#FFFFFF" d="M75.958,221.765c-0.72-0.727-2.272-0.364-3.451,0.804l-1.856,1.839l2.616,2.64l1.855-1.839
				C76.301,224.042,76.677,222.491,75.958,221.765z"/>
			<path fill="#FFFFFF" d="M87.017,232.931c-0.719-0.727-2.271-0.365-3.451,0.803l-1.855,1.839l2.615,2.641l1.855-1.839
				C87.361,235.207,87.737,233.659,87.017,232.931z"/>
			<path fill="#FFFFFF" d="M103.801,238.424c-0.719-0.727-2.271-0.364-3.451,0.804l-7.58,7.508l2.615,2.643l7.58-7.512
				C104.146,240.701,104.521,239.15,103.801,238.424z"/>
			<path fill="#FFFFFF" d="M108.286,254.402c-0.719-0.727-2.271-0.365-3.451,0.804l-1.855,1.838l2.615,2.641l1.855-1.838
				C108.63,256.678,109.006,255.127,108.286,254.402z"/>
			<path fill="#FFFFFF" d="M119.345,265.566c-0.719-0.726-2.271-0.364-3.451,0.805l-1.856,1.838l2.616,2.639l1.855-1.837
				C119.689,267.842,120.065,266.292,119.345,265.566z"/>
			<path fill="#FFFFFF" d="M130.406,276.73c-0.72-0.725-2.274-0.363-3.452,0.805l-1.856,1.839l2.615,2.639l1.856-1.838
				C130.748,279.006,131.125,277.458,130.406,276.73z"/>
			<path fill="#FFFFFF" d="M146.355,285.667c1.178-1.169,1.555-2.717,0.836-3.442c-0.719-0.727-2.271-0.365-3.451,0.804l-7.581,7.51
				l2.614,2.64L146.355,285.667z"/>
		</g>
	</g>
	<g>
		<polygon fill="#F3715C" points="828.874,141.095 738.522,233.07 819.142,294.695 896.322,191.925 		"/>
		<g>
			<polygon fill="#F3715C" points="764.782,217.408 752.589,233.642 760.932,239.929 773.099,223.729 			"/>
		</g>
		<polygon fill="#FFFFFF" points="828.51,132.297 743.693,231.605 821.034,286.943 898.115,184.659 		"/>
		<polygon fill="#F3715C" points="836.815,121.659 756.396,228.01 833.509,284.497 912.301,179.021 		"/>
		<polygon fill="#E26356" points="836.815,121.659 756.396,228.01 738.522,233.07 811.602,137.168 		"/>
		<path fill="#FFF0E0" d="M871.801,203.693c-2.082,2.761-6.047,3.317-8.81,1.237l-31.872-24.02c-2.763-2.083-3.318-6.045-1.236-8.81
			l7.425-9.854c2.084-2.763,6.047-3.318,8.809-1.236l31.872,24.017c2.763,2.083,3.32,6.048,1.238,8.81L871.801,203.693z"/>
		
			<rect x="814.113" y="200.59" transform="matrix(0.7986 0.6018 -0.6018 0.7986 290.6983 -465.1224)" fill="#FFF0E0" width="52.485" height="2.444"/>
		<path opacity="0.3" fill="#CF574A" d="M858.164,251.49c-23.418,4.511-57.412,1.717-96.82-30.022l-4.948,6.543l77.113,56.486
			L858.164,251.49z"/>
	</g>
	<g>
		<g>
			<polygon fill="#A3CD3A" points="854.736,24.347 841.398,27.043 855.933,95.163 869.273,92.469 			"/>
		</g>
		<g>
			
				<rect x="853.283" y="24.963" transform="matrix(0.9779 -0.2089 0.2089 0.9779 6.3823 179.9968)" fill="#FCE615" width="3.744" height="69.654"/>
		</g>
		<g>
			<path fill="#DB5126" d="M848.439,14.317l-5.388,0.999c-2.194,0.469-3.595,2.629-3.128,4.826l1.475,6.902l13.338-2.696
				l-1.474-6.903C852.795,15.248,850.635,13.848,848.439,14.317z"/>
		</g>
		<g>
			<polygon fill="#733918" points="853.981,20.811 840.643,23.508 841.398,27.043 854.736,24.347 			"/>
		</g>
		<g>
			<g>
				<polygon fill="#FEE262" points="855.933,95.163 862.631,105.379 865.645,104.736 869.273,92.469 				"/>
			</g>
			<g>
				<polygon fill="#FEE262" points="864.965,108.943 865.645,104.736 862.631,105.379 				"/>
			</g>
		</g>
		<g>
			<polygon fill="#2F3848" points="864.965,108.943 865.645,104.736 862.631,105.379 			"/>
		</g>
		<g opacity="0.2">
			<circle fill="#FFFFFF" cx="843.458" cy="19.152" r="2.144"/>
		</g>
		<g opacity="0.2">
			<circle fill="#FFFFFF" cx="846.402" cy="16.961" r="0.685"/>
		</g>
	</g>
	<g>
		<g>
			<g>
				
					<rect x="640.663" y="167.394" transform="matrix(0.8819 0.4714 -0.4714 0.8819 163.1528 -296.8937)" fill="#263E45" width="67.016" height="19.619"/>
				<path fill="#2B464F" d="M664.686,280.984l-73.697-39.394c-2.002-1.071-2.759-3.564-1.688-5.566l52.913-98.992
					c1.069-2.003,3.563-2.759,5.566-1.688l73.697,39.393c2.003,1.071,2.758,3.563,1.688,5.566l-52.913,98.992
					C669.182,281.295,666.688,282.054,664.686,280.984z"/>
				
					<rect x="640.392" y="165.629" transform="matrix(0.8819 0.4714 -0.4714 0.8819 162.2771 -296.961)" fill="#DCDCDD" width="67.017" height="19.622"/>
				
					<rect x="644.058" y="166.546" transform="matrix(0.8819 0.4714 -0.4714 0.8819 159.4717 -299.4917)" fill="#C0BFBF" width="67.016" height="4.074"/>
				<path fill="#263E45" d="M641.268,191.631l-8.02-4.285c-0.807-0.433-1.111-1.438-0.679-2.243l4.285-8.02
					c0.432-0.807,1.437-1.111,2.243-0.679l8.018,4.286c0.809,0.431,1.112,1.436,0.682,2.242l-4.285,8.018
					C643.079,191.759,642.074,192.063,641.268,191.631z"/>
				<path fill="#263E45" d="M657.054,200.071l-8.018-4.286c-0.807-0.432-1.111-1.436-0.68-2.244l4.285-8.018
					c0.432-0.809,1.436-1.112,2.244-0.681l8.018,4.287c0.808,0.432,1.111,1.435,0.68,2.241l-4.285,8.019
					C658.865,200.196,657.862,200.501,657.054,200.071z"/>
				<path fill="#263E45" d="M672.842,208.509l-8.019-4.287c-0.807-0.433-1.111-1.435-0.681-2.243l4.286-8.018
					c0.432-0.809,1.436-1.112,2.242-0.68l8.021,4.286c0.806,0.431,1.11,1.436,0.68,2.241l-4.286,8.019
					C674.653,208.636,673.651,208.942,672.842,208.509z"/>
				<path fill="#263E45" d="M688.629,216.948l-8.018-4.286c-0.808-0.432-1.112-1.437-0.681-2.244l4.286-8.017
					c0.432-0.81,1.436-1.112,2.242-0.681l8.019,4.285c0.808,0.433,1.112,1.436,0.681,2.242l-4.284,8.02
					C690.441,217.074,689.438,217.379,688.629,216.948z"/>
				<path fill="#263E45" d="M632.391,208.239l-8.018-4.286c-0.808-0.433-1.112-1.438-0.681-2.243l4.286-8.021
					c0.431-0.805,1.437-1.11,2.243-0.678l8.02,4.284c0.806,0.433,1.11,1.438,0.68,2.244l-4.286,8.019
					C634.203,208.366,633.197,208.669,632.391,208.239z"/>
				<path fill="#263E45" d="M648.179,216.676l-8.019-4.286c-0.808-0.432-1.112-1.435-0.681-2.242l4.286-8.019
					c0.432-0.807,1.435-1.112,2.242-0.681l8.02,4.285c0.808,0.434,1.111,1.438,0.68,2.242l-4.285,8.02
					C649.989,216.803,648.985,217.108,648.179,216.676z"/>
				<path fill="#263E45" d="M663.966,225.116l-8.019-4.286c-0.808-0.433-1.111-1.436-0.68-2.244l4.285-8.018
					c0.432-0.807,1.435-1.112,2.243-0.681l8.02,4.287c0.807,0.43,1.11,1.435,0.68,2.242l-4.286,8.018
					C665.778,225.242,664.773,225.546,663.966,225.116z"/>
				<path fill="#263E45" d="M679.752,233.554l-8.017-4.286c-0.809-0.431-1.113-1.438-0.682-2.244l4.287-8.017
					c0.431-0.809,1.436-1.112,2.242-0.682l8.019,4.286c0.808,0.432,1.112,1.436,0.68,2.243l-4.284,8.019
					C681.564,233.681,680.56,233.986,679.752,233.554z"/>
				<path fill="#263E45" d="M623.516,224.843l-8.02-4.285c-0.808-0.434-1.111-1.435-0.68-2.243l4.285-8.018
					c0.432-0.808,1.437-1.112,2.243-0.681l8.019,4.286c0.807,0.432,1.112,1.436,0.682,2.244l-4.286,8.018
					C625.325,224.972,624.322,225.276,623.516,224.843z"/>
				<path fill="#263E45" d="M639.303,233.282l-8.019-4.285c-0.808-0.433-1.111-1.435-0.681-2.243l4.285-8.017
					c0.432-0.809,1.435-1.113,2.244-0.682l8.018,4.286c0.809,0.432,1.111,1.436,0.68,2.243l-4.285,8.019
					C641.113,233.41,640.109,233.714,639.303,233.282z"/>
				<path fill="#263E45" d="M655.09,241.721l-8.019-4.286c-0.808-0.432-1.112-1.435-0.681-2.242l4.286-8.018
					c0.432-0.808,1.434-1.112,2.242-0.681l8.019,4.285c0.808,0.432,1.111,1.436,0.681,2.244l-4.286,8.017
					C656.901,241.849,655.898,242.153,655.09,241.721z"/>
				<path fill="#263E45" d="M614.639,241.45l-8.019-4.285c-0.808-0.432-1.112-1.436-0.681-2.244l4.286-8.017
					c0.431-0.808,1.436-1.112,2.243-0.681l8.018,4.285c0.808,0.432,1.112,1.438,0.683,2.244l-4.287,8.019
					C616.45,241.578,615.446,241.883,614.639,241.45z"/>
				<path fill="#263E45" d="M630.425,249.89l-8.018-4.287c-0.808-0.432-1.111-1.436-0.681-2.242l4.286-8.019
					c0.432-0.808,1.435-1.112,2.243-0.681l8.018,4.286c0.807,0.431,1.111,1.436,0.681,2.243l-4.286,8.019
					C632.236,250.015,631.233,250.321,630.425,249.89z"/>
				<path fill="#263E45" d="M646.213,258.328l-8.019-4.285c-0.809-0.431-1.111-1.437-0.681-2.243l4.285-8.019
					c0.433-0.807,1.436-1.111,2.243-0.68l8.02,4.286c0.807,0.432,1.111,1.436,0.68,2.242l-4.285,8.019
					C648.024,258.456,647.021,258.759,646.213,258.328z"/>
				<path fill="#263E45" d="M668.706,234.933c-0.807-0.432-1.811-0.128-2.244,0.679l-8.093,15.146l-2.926,5.472l-2.144,4.008
					c-0.431,0.808-0.126,1.812,0.683,2.243l8.017,4.287c0.81,0.431,1.812,0.126,2.244-0.68l2.143-4.012l2.925-5.469l8.095-15.145
					c0.432-0.809,0.127-1.812-0.681-2.244L668.706,234.933z"/>
				<path fill="#DCDCDD" d="M641.219,190.227l-8.02-4.286c-0.808-0.431-1.109-1.437-0.68-2.243l4.287-8.018
					c0.431-0.809,1.435-1.112,2.241-0.681l8.02,4.287c0.808,0.431,1.111,1.434,0.681,2.241l-4.286,8.019
					C643.03,190.353,642.026,190.659,641.219,190.227z"/>
				<path fill="#DCDCDD" d="M657.007,198.667l-8.02-4.286c-0.807-0.432-1.111-1.438-0.68-2.243l4.285-8.019
					c0.433-0.808,1.437-1.112,2.243-0.68l8.019,4.286c0.808,0.432,1.111,1.434,0.681,2.241l-4.287,8.019
					C658.817,198.792,657.812,199.097,657.007,198.667z"/>
				<path fill="#DCDCDD" d="M672.794,207.105l-8.021-4.287c-0.807-0.432-1.111-1.437-0.68-2.243l4.286-8.02
					c0.432-0.806,1.435-1.11,2.243-0.679l8.019,4.287c0.808,0.431,1.111,1.436,0.681,2.241l-4.286,8.02
					C674.604,207.23,673.601,207.535,672.794,207.105z"/>
				<path fill="#EF4343" d="M688.58,215.542l-8.018-4.286c-0.808-0.431-1.112-1.436-0.681-2.243l4.286-8.019
					c0.432-0.806,1.434-1.11,2.243-0.68l8.018,4.285c0.808,0.433,1.111,1.437,0.681,2.243l-4.286,8.018
					C690.392,215.669,689.388,215.973,688.58,215.542z"/>
				<path fill="#DCDCDD" d="M632.342,206.833l-8.018-4.287c-0.809-0.431-1.112-1.436-0.682-2.241l4.287-8.021
					c0.431-0.807,1.435-1.11,2.241-0.679l8.021,4.287c0.807,0.431,1.111,1.434,0.68,2.241l-4.286,8.019
					C634.154,206.96,633.149,207.265,632.342,206.833z"/>
				<path fill="#DCDCDD" d="M648.129,215.272l-8.018-4.285c-0.809-0.433-1.112-1.437-0.682-2.245l4.287-8.018
					c0.432-0.807,1.435-1.111,2.242-0.679l8.02,4.286c0.807,0.432,1.11,1.434,0.68,2.241l-4.287,8.019
					C649.939,215.398,648.938,215.704,648.129,215.272z"/>
				<path fill="#DCDCDD" d="M663.917,223.71l-8.02-4.286c-0.807-0.432-1.112-1.436-0.68-2.243l4.285-8.019
					c0.432-0.808,1.437-1.111,2.243-0.68l8.019,4.287c0.809,0.432,1.112,1.436,0.681,2.24l-4.286,8.021
					C665.729,223.836,664.724,224.142,663.917,223.71z"/>
				<path fill="#EF4343" d="M679.703,232.148l-8.018-4.285c-0.808-0.431-1.111-1.436-0.681-2.242l4.286-8.019
					c0.432-0.808,1.436-1.111,2.243-0.679l8.018,4.284c0.808,0.433,1.113,1.434,0.683,2.242l-4.288,8.019
					C681.516,232.276,680.512,232.581,679.703,232.148z"/>
				<path fill="#DCDCDD" d="M623.467,223.441l-8.021-4.289c-0.808-0.431-1.11-1.435-0.68-2.24l4.286-8.02
					c0.432-0.806,1.436-1.112,2.242-0.68l8.021,4.287c0.807,0.431,1.11,1.435,0.679,2.241l-4.286,8.019
					C625.276,223.566,624.273,223.872,623.467,223.441z"/>
				<path fill="#DCDCDD" d="M639.253,231.878l-8.019-4.286c-0.809-0.432-1.112-1.436-0.682-2.243l4.287-8.018
					c0.431-0.808,1.437-1.111,2.243-0.681l8.02,4.286c0.807,0.431,1.11,1.436,0.679,2.242l-4.287,8.02
					C641.064,232.004,640.061,232.309,639.253,231.878z"/>
				<path fill="#DCDCDD" d="M655.04,240.318l-8.02-4.287c-0.806-0.433-1.112-1.436-0.68-2.243l4.286-8.019
					c0.431-0.806,1.436-1.11,2.242-0.68l8.021,4.287c0.806,0.43,1.109,1.436,0.679,2.242l-4.286,8.018
					C656.851,240.444,655.848,240.749,655.04,240.318z"/>
				<path fill="#EF4343" d="M614.589,240.046l-8.019-4.286c-0.808-0.432-1.112-1.435-0.681-2.243l4.286-8.018
					c0.432-0.808,1.436-1.113,2.242-0.681l8.021,4.286c0.806,0.431,1.111,1.436,0.679,2.244l-4.285,8.017
					C616.4,240.173,615.396,240.477,614.589,240.046z"/>
				<path fill="#DCDCDD" d="M630.377,248.485l-8.02-4.286c-0.807-0.431-1.112-1.435-0.681-2.243l4.286-8.017
					c0.432-0.809,1.437-1.112,2.244-0.683l8.019,4.287c0.807,0.432,1.11,1.436,0.68,2.243l-4.286,8.018
					C632.188,248.612,631.184,248.916,630.377,248.485z"/>
				<path fill="#EF4343" d="M646.164,256.924l-8.02-4.286c-0.807-0.432-1.112-1.438-0.68-2.244l4.285-8.019
					c0.432-0.806,1.436-1.11,2.243-0.68l8.02,4.287c0.807,0.431,1.111,1.434,0.681,2.243l-4.287,8.018
					C647.975,257.051,646.97,257.355,646.164,256.924z"/>
				<path fill="#EF4343" d="M668.657,233.529c-0.807-0.433-1.811-0.127-2.243,0.68l-8.096,15.145l-2.922,5.471l-2.145,4.01
					c-0.431,0.807-0.125,1.812,0.68,2.243l8.019,4.286c0.809,0.431,1.812,0.125,2.243-0.681l2.144-4.01l2.923-5.471l8.098-15.145
					c0.43-0.808,0.126-1.812-0.683-2.243L668.657,233.529z"/>
				
					<rect x="685.437" y="174.87" transform="matrix(0.8819 0.4714 -0.4714 0.8819 168.6541 -303.9973)" opacity="0.64" fill="#FFFFFF" width="11.503" height="19.622"/>
				
					<rect x="673.238" y="166.813" transform="matrix(0.8819 0.4715 -0.4715 0.8819 163.1479 -297.92)" opacity="0.64" fill="#FFFFFF" width="5.752" height="19.622"/>
				<path fill="#395B64" d="M721.478,174.736c2.003,1.071,2.758,3.563,1.688,5.566l-52.913,98.992
					c-1.07,2.001-3.563,2.76-5.566,1.689l-73.697-39.394c-2.002-1.071-2.759-3.564-1.688-5.566l52.913-98.992
					c1.069-2.003,3.563-2.759,5.566-1.688L721.478,174.736 M722.438,172.937l-73.697-39.392c-2.99-1.599-6.725-0.466-8.325,2.525
					l-52.913,98.992c-1.598,2.991-0.467,6.727,2.524,8.324l73.697,39.394c2.992,1.6,6.728,0.467,8.327-2.525l52.913-98.99
					C726.562,178.272,725.431,174.537,722.438,172.937L722.438,172.937z"/>
				
					<rect x="661.692" y="233.507" transform="matrix(0.8819 0.4715 -0.4715 0.8819 195.9647 -283.9593)" fill="#F16667" width="6.032" height="31.239"/>
				
					<rect x="675.001" y="218.118" transform="matrix(0.8819 0.4714 -0.4714 0.8819 185.7586 -293.1375)" fill="#F16667" width="6.033" height="12.221"/>
				
					<rect x="683.875" y="201.41" transform="matrix(0.882 0.4713 -0.4713 0.882 178.9083 -299.2079)" fill="#F16667" width="6.032" height="12.435"/>
				
					<rect x="609.459" y="225.686" transform="matrix(0.8819 0.4714 -0.4714 0.8819 181.6568 -261.3624)" fill="#F16667" width="6.036" height="12.396"/>
				
					<rect x="641.264" y="242.685" transform="matrix(0.8819 0.4715 -0.4715 0.8819 193.4324 -274.3528)" fill="#F16667" width="6.034" height="12.397"/>
			</g>
			<path fill="#395B64" d="M639.105,267.772l-22.063-11.793l1.361-2.549c0.808-1.51,2.686-2.079,4.193-1.274l16.603,8.876
				c1.507,0.807,2.076,2.683,1.27,4.191L639.105,267.772z"/>
			<path fill="#395B64" d="M674.321,148.817l22.065,11.795l-1.363,2.55c-0.807,1.508-2.685,2.077-4.191,1.271l-16.603-8.875
				c-1.508-0.806-2.077-2.683-1.271-4.191L674.321,148.817z"/>
		</g>
	</g>
	<g>
		<g opacity="0.2">
			<g>
				<g>
					<path fill="#010101" d="M160.519,144.927V163.9c0,14.024-11.343,25.16-25.367,25.16h-25.159
						c-14.024,0-25.16-11.136-25.16-25.16V63.052c0-14.023,11.136-25.161,25.16-25.161h25.159c14.024,0,25.367,11.138,25.367,25.161
						v18.974h-25.367V63.052h-25.159V163.9h25.159v-18.973H160.519z"/>
				</g>
				<g>
					<path fill="#010101" d="M243.98,189.06H222.84v-52.422h-20.969v52.422h-20.969V84.044c0-11.688,9.281-20.97,20.969-20.97
						h20.969c11.688,0,21.141,9.281,21.141,20.97V189.06z M222.84,115.497V84.044h-20.969v31.453H222.84z"/>
					<path fill="#010101" d="M312.555,168.091v20.969H262.71V63.074h20.969v105.017h20.969H312.555z"/>
					<path fill="#010101" d="M392.815,152.279v15.812c0,11.688-9.452,20.969-21.141,20.969h-20.968
						c-11.688,0-20.97-9.281-20.97-20.969V84.044c0-11.688,9.281-20.97,20.97-20.97h20.968c11.688,0,21.141,9.281,21.141,20.97
						v15.812h-21.141V84.044h-20.968v84.047h20.968v-15.812H392.815z"/>
					<path fill="#010101" d="M474.45,63.074V189.06H453.31v-2.75c-3.266,1.891-6.874,2.75-10.484,2.75h-10.483
						c-11.688,0-20.97-9.281-20.97-20.969V63.074h20.97v105.017h20.968V63.074H474.45z"/>
					<path fill="#010101" d="M674.84,168.091c0,11.688-9.281,20.969-20.97,20.969h-20.968c-11.688,0-20.97-9.281-20.97-20.969
						V84.044c0-11.688,9.281-20.97,20.97-20.97h20.968c11.688,0,20.97,9.281,20.97,20.97V168.091z M653.87,168.091V84.044h-20.968
						v84.047H653.87z"/>
					<path fill="#010101" d="M735.851,115.497c11.688,0,20.969,9.626,20.969,21.142v52.422h-21.142v-52.422H714.71v52.422h-20.97
						V63.074h20.97v48.641l19.421-48.641h22.688L735.851,115.497z"/>
					<path fill="#010101" d="M838.625,63.074V189.06h-21.141v-2.75c-3.267,1.891-6.875,2.75-10.485,2.75h-10.482
						c-11.688,0-20.97-9.281-20.97-20.969V63.074h20.97v105.017h20.968V63.074H838.625z"/>
				</g>
				<g>
					<path fill="#010101" d="M588.738,163.9c0,14.023-11.342,25.16-25.367,25.16h-50.319V37.892h50.319
						c14.025,0,25.367,11.138,25.367,25.161V163.9z M563.371,163.9V63.052h-25.158V163.9H563.371z"/>
				</g>
			</g>
		</g>
		<g>
			<g>
				<path fill="#FED401" d="M160.519,136.927V155.9c0,14.024-11.343,25.16-25.367,25.16h-25.159c-14.024,0-25.16-11.136-25.16-25.16
					V55.052c0-14.023,11.136-25.161,25.16-25.161h25.159c14.024,0,25.367,11.138,25.367,25.161v18.974h-25.367V55.052h-25.159V155.9
					h25.159v-18.973H160.519z"/>
			</g>
			<g>
				<path fill="#FED401" d="M243.98,181.06H222.84v-52.422h-20.969v52.422h-20.969V76.044c0-11.688,9.281-20.97,20.969-20.97h20.969
					c11.688,0,21.141,9.281,21.141,20.97V181.06z M222.84,107.497V76.044h-20.969v31.453H222.84z"/>
				<path fill="#FED401" d="M312.555,160.091v20.969H262.71V55.074h20.969v105.017h20.969H312.555z"/>
				<path fill="#FED401" d="M392.815,144.279v15.812c0,11.688-9.452,20.969-21.141,20.969h-20.968
					c-11.688,0-20.97-9.281-20.97-20.969V76.044c0-11.688,9.281-20.97,20.97-20.97h20.968c11.688,0,21.141,9.281,21.141,20.97
					v15.812h-21.141V76.044h-20.968v84.047h20.968v-15.812H392.815z"/>
				<path fill="#FED401" d="M474.45,55.074V181.06H453.31v-2.75c-3.266,1.891-6.874,2.75-10.484,2.75h-10.483
					c-11.688,0-20.97-9.281-20.97-20.969V55.074h20.97v105.017h20.968V55.074H474.45z"/>
				<path fill="#FED401" d="M674.84,160.091c0,11.688-9.281,20.969-20.97,20.969h-20.968c-11.688,0-20.97-9.281-20.97-20.969V76.044
					c0-11.688,9.281-20.97,20.97-20.97h20.968c11.688,0,20.97,9.281,20.97,20.97V160.091z M653.87,160.091V76.044h-20.968v84.047
					H653.87z"/>
				<path fill="#FED401" d="M735.851,107.497c11.688,0,20.969,9.626,20.969,21.142v52.422h-21.142v-52.422H714.71v52.422h-20.97
					V55.074h20.97v48.641l19.421-48.641h22.688L735.851,107.497z"/>
				<path fill="#FED401" d="M838.625,55.074V181.06h-21.141v-2.75c-3.267,1.891-6.875,2.75-10.485,2.75h-10.482
					c-11.688,0-20.97-9.281-20.97-20.969V55.074h20.97v105.017h20.968V55.074H838.625z"/>
			</g>
			<g>
				<path fill="#FED401" d="M588.738,155.9c0,14.023-11.342,25.16-25.367,25.16h-50.319V29.892h50.319
					c14.025,0,25.367,11.138,25.367,25.161V155.9z M563.371,155.9V55.052h-25.158V155.9H563.371z"/>
			</g>
		</g>
	</g>
</g>
</svg>
