<?xml version="1.0" encoding="utf-8"?>
<!-- Generator: Adobe Illustrator 16.0.0, SVG Export Plug-In . SVG Version: 6.00 Build 0)  -->
<!DOCTYPE svg PUBLIC "-//W3C//DTD SVG 1.1//EN" "http://www.w3.org/Graphics/SVG/1.1/DTD/svg11.dtd">
<svg version="1.1" id="Layer_1" xmlns="http://www.w3.org/2000/svg" xmlns:xlink="http://www.w3.org/1999/xlink" x="0px" y="0px"
	 width="69.104px" height="59.764px" viewBox="0 0 69.104 59.764" enable-background="new 0 0 69.104 59.764" xml:space="preserve">
<g>
	<path fill="#8D919C" d="M62.155,59.764H6.949C3.111,59.764,0,56.653,0,52.815v-40.5C0,8.477,3.11,5.367,6.949,5.367h55.204
		c3.839,0,6.948,3.109,6.948,6.947v40.5C69.104,56.653,65.992,59.764,62.155,59.764z"/>
	<path fill="#FFFFFF" d="M62.155,54.397H6.949C3.111,54.397,0,51.287,0,47.449v-40.5C0,3.111,3.111,0,6.949,0h55.204
		c3.839,0,6.948,3.109,6.948,6.949v40.5C69.104,51.287,65.992,54.397,62.155,54.397z"/>
</g>
</svg>
