<?xml version="1.0" encoding="utf-8"?>
<!-- Generator: Adobe Illustrator 16.0.0, SVG Export Plug-In . SVG Version: 6.00 Build 0)  -->
<!DOCTYPE svg PUBLIC "-//W3C//DTD SVG 1.1//EN" "http://www.w3.org/Graphics/SVG/1.1/DTD/svg11.dtd">
<svg version="1.1" id="Layer_1" xmlns="http://www.w3.org/2000/svg" xmlns:xlink="http://www.w3.org/1999/xlink" x="0px" y="0px"
	 width="207.498px" height="86.419px" viewBox="0 0 207.498 86.419" enable-background="new 0 0 207.498 86.419"
	 xml:space="preserve">
<g>
	<path fill="#048D91" d="M77.659,0l17.985,42.476c0,0-17.664,45.085-17.985,43.921s-8.632-31.034-8.632-31.034L77.659,0z"/>
	<rect x="0" y="11.323" fill="#012E47" width="207.498" height="63.27"/>
	<rect x="11.523" fill="#00B6BD" width="66.136" height="86.397"/>
	<path fill-rule="evenodd" clip-rule="evenodd" fill="#FFFFFF" d="M47.134,35.149v10.788c1.368,1.671,2.584,3.042,4.255,4.714
		c1.52,1.367,1.823,1.52,1.823,2.734c0,0.912-0.911,2.279-2.127,2.279c-1.672,0-5.622-4.861-6.23-5.318
		c-0.607-0.76-2.129-2.127-2.129-2.434V34.997c0.455-1.368,1.37-1.671,2.129-1.671C45.767,33.326,47.134,33.934,47.134,35.149z
		 M50.478,29.831c8.812,2.735,12.764,11.092,12.764,17.474c0,0.456-0.305,2.131-0.457,3.194c-1.52,9.877-10.635,15.043-17.93,15.043
		c-5.928,0-14.893-3.799-17.172-12.156c-0.152-0.911-1.064-3.494-1.064-4.862v-2.737c1.064-11.093,10.484-16.866,18.236-16.866
		C46.832,28.919,48.654,29.375,50.478,29.831z M50.173,15.852c1.52-0.152,2.432,1.216,2.432,2.279c0,2.279-2.735,2.431-4.255,2.279
		v3.951c0.304,0.304,0.761,0.456,1.063,0.456C61.875,27.4,67.8,38.188,67.8,47.304C67.8,60.223,57.164,70.1,44.855,70.1
		c-1.521,0-4.561-0.457-5.625-0.761c-7.748-1.367-15.346-10.636-16.258-15.649c-0.152-1.368-0.76-3.647-0.76-3.951v-5.017
		c0.152-1.216,0.607-2.583,0.76-3.951c0.912-6.382,10.029-14.739,16.106-15.651c0.761-0.152,1.671-0.304,2.431-0.607V20.41
		c-1.367,0-4.254,0-4.254-2.431c0-0.76,0.607-2.431,2.279-2.127H50.173z"/>
</g>
</svg>
